<?xml version="1.0" encoding="utf-8" standalone="no"?>
<!DOCTYPE svg PUBLIC "-//W3C//DTD SVG 1.1//EN"
  "http://www.w3.org/Graphics/SVG/1.1/DTD/svg11.dtd">
<svg xmlns:xlink="http://www.w3.org/1999/xlink" width="508.813165pt" height="155.344076pt" viewBox="0 0 508.813165 155.344076" xmlns="http://www.w3.org/2000/svg" version="1.1">
 <metadata>
  <rdf:RDF xmlns:dc="http://purl.org/dc/elements/1.1/" xmlns:cc="http://creativecommons.org/ns#" xmlns:rdf="http://www.w3.org/1999/02/22-rdf-syntax-ns#">
   <cc:Work>
    <dc:type rdf:resource="http://purl.org/dc/dcmitype/StillImage"/>
    <dc:date>2026-08-14T18:38:14.634778</dc:date>
    <dc:format>image/svg+xml</dc:format>
    <dc:creator>
     <cc:Agent>
      <dc:title>Matplotlib v3.8.0, https://matplotlib.org/</dc:title>
     </cc:Agent>
    </dc:creator>
   </cc:Work>
  </rdf:RDF>
 </metadata>
 <defs>
  <style type="text/css">*{stroke-linejoin: round; stroke-linecap: butt}</style>
 </defs>
 <g id="figure_1">
  <g id="patch_1">
   <path d="M 0 155.344076 
L 508.813165 155.344076 
L 508.813165 0 
L 0 0 
z
" style="fill: #ffffff"/>
  </g>
  <g id="axes_1">
   <g id="patch_2">
    <path d="M 36.1475 113.162 
L 177.916825 113.162 
L 177.916825 29.03 
L 36.1475 29.03 
z
" style="fill: #ffffff"/>
   </g>
   <g id="matplotlib.axis_1">
    <g id="xtick_1">
     <g id="line2d_1">
      <path d="M 39.52296 113.162 
L 39.52296 29.03 
" clip-path="url(#p04d05f8813)" style="fill: none; stroke: #b8bdc7; stroke-opacity: 0.45; stroke-width: 0.55; stroke-linecap: square"/>
     </g>
     <g id="line2d_2">
      <defs>
       <path id="m5c27b3ea63" d="M 0 0 
L 0 2.6 
" style="stroke: #000000; stroke-width: 0.7"/>
      </defs>
      <g>
       <use xlink:href="#m5c27b3ea63" x="39.52296" y="113.162" style="stroke: #000000; stroke-width: 0.7"/>
      </g>
     </g>
     <g id="text_1">
      <!-- 2 -->
      <g transform="translate(37.298585 122.98825) scale(0.08 -0.08)">
       <defs>
        <path id="ArialMT-32" d="M 3222 541 
L 3222 0 
L 194 0 
Q 188 203 259 391 
Q 375 700 629 1000 
Q 884 1300 1366 1694 
Q 2113 2306 2375 2664 
Q 2638 3022 2638 3341 
Q 2638 3675 2398 3904 
Q 2159 4134 1775 4134 
Q 1369 4134 1125 3890 
Q 881 3647 878 3216 
L 300 3275 
Q 359 3922 746 4261 
Q 1134 4600 1788 4600 
Q 2447 4600 2831 4234 
Q 3216 3869 3216 3328 
Q 3216 3053 3103 2787 
Q 2991 2522 2730 2228 
Q 2469 1934 1863 1422 
Q 1356 997 1212 845 
Q 1069 694 975 541 
L 3222 541 
z
" transform="scale(0.015625)"/>
       </defs>
       <use xlink:href="#ArialMT-32"/>
      </g>
     </g>
    </g>
    <g id="xtick_2">
     <g id="line2d_3">
      <path d="M 62.026028 113.162 
L 62.026028 29.03 
" clip-path="url(#p04d05f8813)" style="fill: none; stroke: #b8bdc7; stroke-opacity: 0.45; stroke-width: 0.55; stroke-linecap: square"/>
     </g>
     <g id="line2d_4">
      <g>
       <use xlink:href="#m5c27b3ea63" x="62.026028" y="113.162" style="stroke: #000000; stroke-width: 0.7"/>
      </g>
     </g>
     <g id="text_2">
      <!-- 5 -->
      <g transform="translate(59.801653 122.98825) scale(0.08 -0.08)">
       <defs>
        <path id="ArialMT-35" d="M 266 1200 
L 856 1250 
Q 922 819 1161 601 
Q 1400 384 1738 384 
Q 2144 384 2425 690 
Q 2706 997 2706 1503 
Q 2706 1984 2436 2262 
Q 2166 2541 1728 2541 
Q 1456 2541 1237 2417 
Q 1019 2294 894 2097 
L 366 2166 
L 809 4519 
L 3088 4519 
L 3088 3981 
L 1259 3981 
L 1013 2750 
Q 1425 3038 1878 3038 
Q 2478 3038 2890 2622 
Q 3303 2206 3303 1553 
Q 3303 931 2941 478 
Q 2500 -78 1738 -78 
Q 1113 -78 717 272 
Q 322 622 266 1200 
z
" transform="scale(0.015625)"/>
       </defs>
       <use xlink:href="#ArialMT-35"/>
      </g>
     </g>
    </g>
    <g id="xtick_3">
     <g id="line2d_5">
      <path d="M 84.529095 113.162 
L 84.529095 29.03 
" clip-path="url(#p04d05f8813)" style="fill: none; stroke: #b8bdc7; stroke-opacity: 0.45; stroke-width: 0.55; stroke-linecap: square"/>
     </g>
     <g id="line2d_6">
      <g>
       <use xlink:href="#m5c27b3ea63" x="84.529095" y="113.162" style="stroke: #000000; stroke-width: 0.7"/>
      </g>
     </g>
     <g id="text_3">
      <!-- 10 -->
      <g transform="translate(80.080345 122.98825) scale(0.08 -0.08)">
       <defs>
        <path id="ArialMT-31" d="M 2384 0 
L 1822 0 
L 1822 3584 
Q 1619 3391 1289 3197 
Q 959 3003 697 2906 
L 697 3450 
Q 1169 3672 1522 3987 
Q 1875 4303 2022 4600 
L 2384 4600 
L 2384 0 
z
" transform="scale(0.015625)"/>
        <path id="ArialMT-30" d="M 266 2259 
Q 266 3072 433 3567 
Q 600 4063 929 4331 
Q 1259 4600 1759 4600 
Q 2128 4600 2406 4451 
Q 2684 4303 2865 4023 
Q 3047 3744 3150 3342 
Q 3253 2941 3253 2259 
Q 3253 1453 3087 958 
Q 2922 463 2592 192 
Q 2263 -78 1759 -78 
Q 1097 -78 719 397 
Q 266 969 266 2259 
z
M 844 2259 
Q 844 1131 1108 757 
Q 1372 384 1759 384 
Q 2147 384 2411 759 
Q 2675 1134 2675 2259 
Q 2675 3391 2411 3762 
Q 2147 4134 1753 4134 
Q 1366 4134 1134 3806 
Q 844 3388 844 2259 
z
" transform="scale(0.015625)"/>
       </defs>
       <use xlink:href="#ArialMT-31"/>
       <use xlink:href="#ArialMT-30" x="55.615234"/>
      </g>
     </g>
    </g>
    <g id="xtick_4">
     <g id="line2d_7">
      <path d="M 107.032163 113.162 
L 107.032163 29.03 
" clip-path="url(#p04d05f8813)" style="fill: none; stroke: #b8bdc7; stroke-opacity: 0.45; stroke-width: 0.55; stroke-linecap: square"/>
     </g>
     <g id="line2d_8">
      <g>
       <use xlink:href="#m5c27b3ea63" x="107.032163" y="113.162" style="stroke: #000000; stroke-width: 0.7"/>
      </g>
     </g>
     <g id="text_4">
      <!-- 20 -->
      <g transform="translate(102.583413 122.98825) scale(0.08 -0.08)">
       <use xlink:href="#ArialMT-32"/>
       <use xlink:href="#ArialMT-30" x="55.615234"/>
      </g>
     </g>
    </g>
    <g id="xtick_5">
     <g id="line2d_9">
      <path d="M 129.53523 113.162 
L 129.53523 29.03 
" clip-path="url(#p04d05f8813)" style="fill: none; stroke: #b8bdc7; stroke-opacity: 0.45; stroke-width: 0.55; stroke-linecap: square"/>
     </g>
     <g id="line2d_10">
      <g>
       <use xlink:href="#m5c27b3ea63" x="129.53523" y="113.162" style="stroke: #000000; stroke-width: 0.7"/>
      </g>
     </g>
     <g id="text_5">
      <!-- 40 -->
      <g transform="translate(125.08648 122.98825) scale(0.08 -0.08)">
       <defs>
        <path id="ArialMT-34" d="M 2069 0 
L 2069 1097 
L 81 1097 
L 81 1613 
L 2172 4581 
L 2631 4581 
L 2631 1613 
L 3250 1613 
L 3250 1097 
L 2631 1097 
L 2631 0 
L 2069 0 
z
M 2069 1613 
L 2069 3678 
L 634 1613 
L 2069 1613 
z
" transform="scale(0.015625)"/>
       </defs>
       <use xlink:href="#ArialMT-34"/>
       <use xlink:href="#ArialMT-30" x="55.615234"/>
      </g>
     </g>
    </g>
    <g id="xtick_6">
     <g id="line2d_11">
      <path d="M 152.038298 113.162 
L 152.038298 29.03 
" clip-path="url(#p04d05f8813)" style="fill: none; stroke: #b8bdc7; stroke-opacity: 0.45; stroke-width: 0.55; stroke-linecap: square"/>
     </g>
     <g id="line2d_12">
      <g>
       <use xlink:href="#m5c27b3ea63" x="152.038298" y="113.162" style="stroke: #000000; stroke-width: 0.7"/>
      </g>
     </g>
     <g id="text_6">
      <!-- 80 -->
      <g transform="translate(147.589548 122.98825) scale(0.08 -0.08)">
       <defs>
        <path id="ArialMT-38" d="M 1131 2484 
Q 781 2613 612 2850 
Q 444 3088 444 3419 
Q 444 3919 803 4259 
Q 1163 4600 1759 4600 
Q 2359 4600 2725 4251 
Q 3091 3903 3091 3403 
Q 3091 3084 2923 2848 
Q 2756 2613 2416 2484 
Q 2838 2347 3058 2040 
Q 3278 1734 3278 1309 
Q 3278 722 2862 322 
Q 2447 -78 1769 -78 
Q 1091 -78 675 323 
Q 259 725 259 1325 
Q 259 1772 486 2073 
Q 713 2375 1131 2484 
z
M 1019 3438 
Q 1019 3113 1228 2906 
Q 1438 2700 1772 2700 
Q 2097 2700 2305 2904 
Q 2513 3109 2513 3406 
Q 2513 3716 2298 3927 
Q 2084 4138 1766 4138 
Q 1444 4138 1231 3931 
Q 1019 3725 1019 3438 
z
M 838 1322 
Q 838 1081 952 856 
Q 1066 631 1291 507 
Q 1516 384 1775 384 
Q 2178 384 2440 643 
Q 2703 903 2703 1303 
Q 2703 1709 2433 1975 
Q 2163 2241 1756 2241 
Q 1359 2241 1098 1978 
Q 838 1716 838 1322 
z
" transform="scale(0.015625)"/>
       </defs>
       <use xlink:href="#ArialMT-38"/>
       <use xlink:href="#ArialMT-30" x="55.615234"/>
      </g>
     </g>
    </g>
    <g id="xtick_7">
     <g id="line2d_13">
      <path d="M 174.541365 113.162 
L 174.541365 29.03 
" clip-path="url(#p04d05f8813)" style="fill: none; stroke: #b8bdc7; stroke-opacity: 0.45; stroke-width: 0.55; stroke-linecap: square"/>
     </g>
     <g id="line2d_14">
      <g>
       <use xlink:href="#m5c27b3ea63" x="174.541365" y="113.162" style="stroke: #000000; stroke-width: 0.7"/>
      </g>
     </g>
     <g id="text_7">
      <!-- 160 -->
      <g transform="translate(167.86824 122.98825) scale(0.08 -0.08)">
       <defs>
        <path id="ArialMT-36" d="M 3184 3459 
L 2625 3416 
Q 2550 3747 2413 3897 
Q 2184 4138 1850 4138 
Q 1581 4138 1378 3988 
Q 1113 3794 959 3422 
Q 806 3050 800 2363 
Q 1003 2672 1297 2822 
Q 1591 2972 1913 2972 
Q 2475 2972 2870 2558 
Q 3266 2144 3266 1488 
Q 3266 1056 3080 686 
Q 2894 316 2569 119 
Q 2244 -78 1831 -78 
Q 1128 -78 684 439 
Q 241 956 241 2144 
Q 241 3472 731 4075 
Q 1159 4600 1884 4600 
Q 2425 4600 2770 4297 
Q 3116 3994 3184 3459 
z
M 888 1484 
Q 888 1194 1011 928 
Q 1134 663 1356 523 
Q 1578 384 1822 384 
Q 2178 384 2434 671 
Q 2691 959 2691 1453 
Q 2691 1928 2437 2201 
Q 2184 2475 1800 2475 
Q 1419 2475 1153 2201 
Q 888 1928 888 1484 
z
" transform="scale(0.015625)"/>
       </defs>
       <use xlink:href="#ArialMT-31"/>
       <use xlink:href="#ArialMT-36" x="55.615234"/>
       <use xlink:href="#ArialMT-30" x="111.230469"/>
      </g>
     </g>
    </g>
    <g id="text_8">
     <!-- Horizon $N$ -->
     <g transform="translate(89.112163 131.8045) scale(0.08 -0.08)">
      <defs>
       <path id="ArialMT-48" d="M 513 0 
L 513 4581 
L 1119 4581 
L 1119 2700 
L 3500 2700 
L 3500 4581 
L 4106 4581 
L 4106 0 
L 3500 0 
L 3500 2159 
L 1119 2159 
L 1119 0 
L 513 0 
z
" transform="scale(0.015625)"/>
       <path id="ArialMT-6f" d="M 213 1659 
Q 213 2581 725 3025 
Q 1153 3394 1769 3394 
Q 2453 3394 2887 2945 
Q 3322 2497 3322 1706 
Q 3322 1066 3130 698 
Q 2938 331 2570 128 
Q 2203 -75 1769 -75 
Q 1072 -75 642 372 
Q 213 819 213 1659 
z
M 791 1659 
Q 791 1022 1069 705 
Q 1347 388 1769 388 
Q 2188 388 2466 706 
Q 2744 1025 2744 1678 
Q 2744 2294 2464 2611 
Q 2184 2928 1769 2928 
Q 1347 2928 1069 2612 
Q 791 2297 791 1659 
z
" transform="scale(0.015625)"/>
       <path id="ArialMT-72" d="M 416 0 
L 416 3319 
L 922 3319 
L 922 2816 
Q 1116 3169 1280 3281 
Q 1444 3394 1641 3394 
Q 1925 3394 2219 3213 
L 2025 2691 
Q 1819 2813 1613 2813 
Q 1428 2813 1281 2702 
Q 1134 2591 1072 2394 
Q 978 2094 978 1738 
L 978 0 
L 416 0 
z
" transform="scale(0.015625)"/>
       <path id="ArialMT-69" d="M 425 3934 
L 425 4581 
L 988 4581 
L 988 3934 
L 425 3934 
z
M 425 0 
L 425 3319 
L 988 3319 
L 988 0 
L 425 0 
z
" transform="scale(0.015625)"/>
       <path id="ArialMT-7a" d="M 125 0 
L 125 456 
L 2238 2881 
Q 1878 2863 1603 2863 
L 250 2863 
L 250 3319 
L 2963 3319 
L 2963 2947 
L 1166 841 
L 819 456 
Q 1197 484 1528 484 
L 3063 484 
L 3063 0 
L 125 0 
z
" transform="scale(0.015625)"/>
       <path id="ArialMT-6e" d="M 422 0 
L 422 3319 
L 928 3319 
L 928 2847 
Q 1294 3394 1984 3394 
Q 2284 3394 2536 3286 
Q 2788 3178 2913 3003 
Q 3038 2828 3088 2588 
Q 3119 2431 3119 2041 
L 3119 0 
L 2556 0 
L 2556 2019 
Q 2556 2363 2490 2533 
Q 2425 2703 2258 2804 
Q 2091 2906 1866 2906 
Q 1506 2906 1245 2678 
Q 984 2450 984 1813 
L 984 0 
L 422 0 
z
" transform="scale(0.015625)"/>
       <path id="ArialMT-20" transform="scale(0.015625)"/>
       <path id="DejaVuSans-Oblique-4e" d="M 1081 4666 
L 1931 4666 
L 3219 666 
L 4000 4666 
L 4616 4666 
L 3706 0 
L 2853 0 
L 1569 4025 
L 788 0 
L 172 0 
L 1081 4666 
z
" transform="scale(0.015625)"/>
      </defs>
      <use xlink:href="#ArialMT-48" transform="translate(0 0.09375)"/>
      <use xlink:href="#ArialMT-6f" transform="translate(72.216797 0.09375)"/>
      <use xlink:href="#ArialMT-72" transform="translate(127.832031 0.09375)"/>
      <use xlink:href="#ArialMT-69" transform="translate(161.132812 0.09375)"/>
      <use xlink:href="#ArialMT-7a" transform="translate(183.349609 0.09375)"/>
      <use xlink:href="#ArialMT-6f" transform="translate(233.349609 0.09375)"/>
      <use xlink:href="#ArialMT-6e" transform="translate(288.964844 0.09375)"/>
      <use xlink:href="#ArialMT-20" transform="translate(344.580078 0.09375)"/>
      <use xlink:href="#DejaVuSans-Oblique-4e" transform="translate(372.363281 0.09375)"/>
     </g>
    </g>
   </g>
   <g id="matplotlib.axis_2">
    <g id="ytick_1">
     <g id="line2d_15">
      <path d="M 36.1475 106.909301 
L 177.916825 106.909301 
" clip-path="url(#p04d05f8813)" style="fill: none; stroke: #b8bdc7; stroke-opacity: 0.45; stroke-width: 0.55; stroke-linecap: square"/>
     </g>
     <g id="line2d_16">
      <defs>
       <path id="mf7d2882926" d="M 0 0 
L -2.6 0 
" style="stroke: #000000; stroke-width: 0.7"/>
      </defs>
      <g>
       <use xlink:href="#mf7d2882926" x="36.1475" y="106.909301" style="stroke: #000000; stroke-width: 0.7"/>
      </g>
     </g>
     <g id="text_9">
      <!-- $\mathdefault{10^{-1}}$ -->
      <g transform="translate(16.2075 111.034301) scale(0.08 -0.08)">
       <defs>
        <path id="ArialMT-2212" d="M 3381 1997 
L 356 1997 
L 356 2522 
L 3381 2522 
L 3381 1997 
z
" transform="scale(0.015625)"/>
       </defs>
       <use xlink:href="#ArialMT-31" transform="translate(0 0.99375)"/>
       <use xlink:href="#ArialMT-30" transform="translate(55.615234 0.99375)"/>
       <use xlink:href="#ArialMT-2212" transform="translate(112.972813 70.6875) scale(0.7)"/>
       <use xlink:href="#ArialMT-31" transform="translate(153.851719 70.6875) scale(0.7)"/>
      </g>
     </g>
    </g>
    <g id="ytick_2">
     <g id="line2d_17">
      <path d="M 36.1475 82.05885 
L 177.916825 82.05885 
" clip-path="url(#p04d05f8813)" style="fill: none; stroke: #b8bdc7; stroke-opacity: 0.45; stroke-width: 0.55; stroke-linecap: square"/>
     </g>
     <g id="line2d_18">
      <g>
       <use xlink:href="#mf7d2882926" x="36.1475" y="82.05885" style="stroke: #000000; stroke-width: 0.7"/>
      </g>
     </g>
     <g id="text_10">
      <!-- $\mathdefault{10^{0}}$ -->
      <g transform="translate(19.4875 86.18385) scale(0.08 -0.08)">
       <use xlink:href="#ArialMT-31" transform="translate(0 0.99375)"/>
       <use xlink:href="#ArialMT-30" transform="translate(55.615234 0.99375)"/>
       <use xlink:href="#ArialMT-30" transform="translate(112.972813 70.6875) scale(0.7)"/>
      </g>
     </g>
    </g>
    <g id="ytick_3">
     <g id="line2d_19">
      <path d="M 36.1475 57.208398 
L 177.916825 57.208398 
" clip-path="url(#p04d05f8813)" style="fill: none; stroke: #b8bdc7; stroke-opacity: 0.45; stroke-width: 0.55; stroke-linecap: square"/>
     </g>
     <g id="line2d_20">
      <g>
       <use xlink:href="#mf7d2882926" x="36.1475" y="57.208398" style="stroke: #000000; stroke-width: 0.7"/>
      </g>
     </g>
     <g id="text_11">
      <!-- $\mathdefault{10^{1}}$ -->
      <g transform="translate(19.4875 61.333398) scale(0.08 -0.08)">
       <use xlink:href="#ArialMT-31" transform="translate(0 0.99375)"/>
       <use xlink:href="#ArialMT-30" transform="translate(55.615234 0.99375)"/>
       <use xlink:href="#ArialMT-31" transform="translate(112.972813 70.6875) scale(0.7)"/>
      </g>
     </g>
    </g>
    <g id="ytick_4">
     <g id="line2d_21">
      <path d="M 36.1475 32.357946 
L 177.916825 32.357946 
" clip-path="url(#p04d05f8813)" style="fill: none; stroke: #b8bdc7; stroke-opacity: 0.45; stroke-width: 0.55; stroke-linecap: square"/>
     </g>
     <g id="line2d_22">
      <g>
       <use xlink:href="#mf7d2882926" x="36.1475" y="32.357946" style="stroke: #000000; stroke-width: 0.7"/>
      </g>
     </g>
     <g id="text_12">
      <!-- $\mathdefault{10^{2}}$ -->
      <g transform="translate(19.4875 36.482946) scale(0.08 -0.08)">
       <use xlink:href="#ArialMT-31" transform="translate(0 0.99375)"/>
       <use xlink:href="#ArialMT-30" transform="translate(55.615234 0.99375)"/>
       <use xlink:href="#ArialMT-32" transform="translate(112.972813 70.6875) scale(0.7)"/>
      </g>
     </g>
    </g>
    <g id="ytick_5">
     <g id="line2d_23">
      <defs>
       <path id="m552c8fb9e7" d="M 0 0 
L -1.8 0 
" style="stroke: #000000; stroke-width: 0.55"/>
      </defs>
      <g>
       <use xlink:href="#m552c8fb9e7" x="36.1475" y="112.422343" style="stroke: #000000; stroke-width: 0.55"/>
      </g>
     </g>
    </g>
    <g id="ytick_6">
     <g id="line2d_24">
      <g>
       <use xlink:href="#m552c8fb9e7" x="36.1475" y="110.758685" style="stroke: #000000; stroke-width: 0.55"/>
      </g>
     </g>
    </g>
    <g id="ytick_7">
     <g id="line2d_25">
      <g>
       <use xlink:href="#m552c8fb9e7" x="36.1475" y="109.317559" style="stroke: #000000; stroke-width: 0.55"/>
      </g>
     </g>
    </g>
    <g id="ytick_8">
     <g id="line2d_26">
      <g>
       <use xlink:href="#m552c8fb9e7" x="36.1475" y="108.046396" style="stroke: #000000; stroke-width: 0.55"/>
      </g>
     </g>
    </g>
    <g id="ytick_9">
     <g id="line2d_27">
      <g>
       <use xlink:href="#m552c8fb9e7" x="36.1475" y="99.42857" style="stroke: #000000; stroke-width: 0.55"/>
      </g>
     </g>
    </g>
    <g id="ytick_10">
     <g id="line2d_28">
      <g>
       <use xlink:href="#m552c8fb9e7" x="36.1475" y="95.052623" style="stroke: #000000; stroke-width: 0.55"/>
      </g>
     </g>
    </g>
    <g id="ytick_11">
     <g id="line2d_29">
      <g>
       <use xlink:href="#m552c8fb9e7" x="36.1475" y="91.947839" style="stroke: #000000; stroke-width: 0.55"/>
      </g>
     </g>
    </g>
    <g id="ytick_12">
     <g id="line2d_30">
      <g>
       <use xlink:href="#m552c8fb9e7" x="36.1475" y="89.539581" style="stroke: #000000; stroke-width: 0.55"/>
      </g>
     </g>
    </g>
    <g id="ytick_13">
     <g id="line2d_31">
      <g>
       <use xlink:href="#m552c8fb9e7" x="36.1475" y="87.571891" style="stroke: #000000; stroke-width: 0.55"/>
      </g>
     </g>
    </g>
    <g id="ytick_14">
     <g id="line2d_32">
      <g>
       <use xlink:href="#m552c8fb9e7" x="36.1475" y="85.908233" style="stroke: #000000; stroke-width: 0.55"/>
      </g>
     </g>
    </g>
    <g id="ytick_15">
     <g id="line2d_33">
      <g>
       <use xlink:href="#m552c8fb9e7" x="36.1475" y="84.467107" style="stroke: #000000; stroke-width: 0.55"/>
      </g>
     </g>
    </g>
    <g id="ytick_16">
     <g id="line2d_34">
      <g>
       <use xlink:href="#m552c8fb9e7" x="36.1475" y="83.195944" style="stroke: #000000; stroke-width: 0.55"/>
      </g>
     </g>
    </g>
    <g id="ytick_17">
     <g id="line2d_35">
      <g>
       <use xlink:href="#m552c8fb9e7" x="36.1475" y="74.578118" style="stroke: #000000; stroke-width: 0.55"/>
      </g>
     </g>
    </g>
    <g id="ytick_18">
     <g id="line2d_36">
      <g>
       <use xlink:href="#m552c8fb9e7" x="36.1475" y="70.202171" style="stroke: #000000; stroke-width: 0.55"/>
      </g>
     </g>
    </g>
    <g id="ytick_19">
     <g id="line2d_37">
      <g>
       <use xlink:href="#m552c8fb9e7" x="36.1475" y="67.097387" style="stroke: #000000; stroke-width: 0.55"/>
      </g>
     </g>
    </g>
    <g id="ytick_20">
     <g id="line2d_38">
      <g>
       <use xlink:href="#m552c8fb9e7" x="36.1475" y="64.689129" style="stroke: #000000; stroke-width: 0.55"/>
      </g>
     </g>
    </g>
    <g id="ytick_21">
     <g id="line2d_39">
      <g>
       <use xlink:href="#m552c8fb9e7" x="36.1475" y="62.721439" style="stroke: #000000; stroke-width: 0.55"/>
      </g>
     </g>
    </g>
    <g id="ytick_22">
     <g id="line2d_40">
      <g>
       <use xlink:href="#m552c8fb9e7" x="36.1475" y="61.057781" style="stroke: #000000; stroke-width: 0.55"/>
      </g>
     </g>
    </g>
    <g id="ytick_23">
     <g id="line2d_41">
      <g>
       <use xlink:href="#m552c8fb9e7" x="36.1475" y="59.616655" style="stroke: #000000; stroke-width: 0.55"/>
      </g>
     </g>
    </g>
    <g id="ytick_24">
     <g id="line2d_42">
      <g>
       <use xlink:href="#m552c8fb9e7" x="36.1475" y="58.345492" style="stroke: #000000; stroke-width: 0.55"/>
      </g>
     </g>
    </g>
    <g id="ytick_25">
     <g id="line2d_43">
      <g>
       <use xlink:href="#m552c8fb9e7" x="36.1475" y="49.727666" style="stroke: #000000; stroke-width: 0.55"/>
      </g>
     </g>
    </g>
    <g id="ytick_26">
     <g id="line2d_44">
      <g>
       <use xlink:href="#m552c8fb9e7" x="36.1475" y="45.351719" style="stroke: #000000; stroke-width: 0.55"/>
      </g>
     </g>
    </g>
    <g id="ytick_27">
     <g id="line2d_45">
      <g>
       <use xlink:href="#m552c8fb9e7" x="36.1475" y="42.246935" style="stroke: #000000; stroke-width: 0.55"/>
      </g>
     </g>
    </g>
    <g id="ytick_28">
     <g id="line2d_46">
      <g>
       <use xlink:href="#m552c8fb9e7" x="36.1475" y="39.838677" style="stroke: #000000; stroke-width: 0.55"/>
      </g>
     </g>
    </g>
    <g id="ytick_29">
     <g id="line2d_47">
      <g>
       <use xlink:href="#m552c8fb9e7" x="36.1475" y="37.870988" style="stroke: #000000; stroke-width: 0.55"/>
      </g>
     </g>
    </g>
    <g id="ytick_30">
     <g id="line2d_48">
      <g>
       <use xlink:href="#m552c8fb9e7" x="36.1475" y="36.20733" style="stroke: #000000; stroke-width: 0.55"/>
      </g>
     </g>
    </g>
    <g id="ytick_31">
     <g id="line2d_49">
      <g>
       <use xlink:href="#m552c8fb9e7" x="36.1475" y="34.766204" style="stroke: #000000; stroke-width: 0.55"/>
      </g>
     </g>
    </g>
    <g id="ytick_32">
     <g id="line2d_50">
      <g>
       <use xlink:href="#m552c8fb9e7" x="36.1475" y="33.49504" style="stroke: #000000; stroke-width: 0.55"/>
      </g>
     </g>
    </g>
    <g id="text_13">
     <!-- Time (ms) -->
     <g transform="translate(13.02375 88.941) rotate(-90) scale(0.08 -0.08)">
      <defs>
       <path id="ArialMT-54" d="M 1659 0 
L 1659 4041 
L 150 4041 
L 150 4581 
L 3781 4581 
L 3781 4041 
L 2266 4041 
L 2266 0 
L 1659 0 
z
" transform="scale(0.015625)"/>
       <path id="ArialMT-6d" d="M 422 0 
L 422 3319 
L 925 3319 
L 925 2853 
Q 1081 3097 1340 3245 
Q 1600 3394 1931 3394 
Q 2300 3394 2536 3241 
Q 2772 3088 2869 2813 
Q 3263 3394 3894 3394 
Q 4388 3394 4653 3120 
Q 4919 2847 4919 2278 
L 4919 0 
L 4359 0 
L 4359 2091 
Q 4359 2428 4304 2576 
Q 4250 2725 4106 2815 
Q 3963 2906 3769 2906 
Q 3419 2906 3187 2673 
Q 2956 2441 2956 1928 
L 2956 0 
L 2394 0 
L 2394 2156 
Q 2394 2531 2256 2718 
Q 2119 2906 1806 2906 
Q 1569 2906 1367 2781 
Q 1166 2656 1075 2415 
Q 984 2175 984 1722 
L 984 0 
L 422 0 
z
" transform="scale(0.015625)"/>
       <path id="ArialMT-65" d="M 2694 1069 
L 3275 997 
Q 3138 488 2766 206 
Q 2394 -75 1816 -75 
Q 1088 -75 661 373 
Q 234 822 234 1631 
Q 234 2469 665 2931 
Q 1097 3394 1784 3394 
Q 2450 3394 2872 2941 
Q 3294 2488 3294 1666 
Q 3294 1616 3291 1516 
L 816 1516 
Q 847 969 1125 678 
Q 1403 388 1819 388 
Q 2128 388 2347 550 
Q 2566 713 2694 1069 
z
M 847 1978 
L 2700 1978 
Q 2663 2397 2488 2606 
Q 2219 2931 1791 2931 
Q 1403 2931 1139 2672 
Q 875 2413 847 1978 
z
" transform="scale(0.015625)"/>
       <path id="ArialMT-28" d="M 1497 -1347 
Q 1031 -759 709 28 
Q 388 816 388 1659 
Q 388 2403 628 3084 
Q 909 3875 1497 4659 
L 1900 4659 
Q 1522 4009 1400 3731 
Q 1209 3300 1100 2831 
Q 966 2247 966 1656 
Q 966 153 1900 -1347 
L 1497 -1347 
z
" transform="scale(0.015625)"/>
       <path id="ArialMT-73" d="M 197 991 
L 753 1078 
Q 800 744 1014 566 
Q 1228 388 1613 388 
Q 2000 388 2187 545 
Q 2375 703 2375 916 
Q 2375 1106 2209 1216 
Q 2094 1291 1634 1406 
Q 1016 1563 777 1677 
Q 538 1791 414 1992 
Q 291 2194 291 2438 
Q 291 2659 392 2848 
Q 494 3038 669 3163 
Q 800 3259 1026 3326 
Q 1253 3394 1513 3394 
Q 1903 3394 2198 3281 
Q 2494 3169 2634 2976 
Q 2775 2784 2828 2463 
L 2278 2388 
Q 2241 2644 2061 2787 
Q 1881 2931 1553 2931 
Q 1166 2931 1000 2803 
Q 834 2675 834 2503 
Q 834 2394 903 2306 
Q 972 2216 1119 2156 
Q 1203 2125 1616 2013 
Q 2213 1853 2448 1751 
Q 2684 1650 2818 1456 
Q 2953 1263 2953 975 
Q 2953 694 2789 445 
Q 2625 197 2315 61 
Q 2006 -75 1616 -75 
Q 969 -75 630 194 
Q 291 463 197 991 
z
" transform="scale(0.015625)"/>
       <path id="ArialMT-29" d="M 791 -1347 
L 388 -1347 
Q 1322 153 1322 1656 
Q 1322 2244 1188 2822 
Q 1081 3291 891 3722 
Q 769 4003 388 4659 
L 791 4659 
Q 1378 3875 1659 3084 
Q 1900 2403 1900 1659 
Q 1900 816 1576 28 
Q 1253 -759 791 -1347 
z
" transform="scale(0.015625)"/>
      </defs>
      <use xlink:href="#ArialMT-54"/>
      <use xlink:href="#ArialMT-69" x="57.333984"/>
      <use xlink:href="#ArialMT-6d" x="79.550781"/>
      <use xlink:href="#ArialMT-65" x="162.851562"/>
      <use xlink:href="#ArialMT-20" x="218.466797"/>
      <use xlink:href="#ArialMT-28" x="246.25"/>
      <use xlink:href="#ArialMT-6d" x="279.550781"/>
      <use xlink:href="#ArialMT-73" x="362.851562"/>
      <use xlink:href="#ArialMT-29" x="412.851562"/>
     </g>
    </g>
   </g>
   <g id="PolyCollection_1">
    <defs>
     <path id="m9dcd9a8b55" d="M 39.52296 -48.304463 
L 39.52296 -46.006258 
L 62.026028 -58.495079 
L 84.529095 -66.597046 
L 107.032163 -76.238126 
L 129.53523 -82.864385 
L 152.038298 -91.716098 
L 174.541365 -102.284666 
L 174.541365 -106.299505 
L 174.541365 -106.299505 
L 152.038298 -92.548092 
L 129.53523 -84.002612 
L 107.032163 -77.265853 
L 84.529095 -67.787463 
L 62.026028 -60.521033 
L 39.52296 -48.304463 
z
"/>
    </defs>
    <g clip-path="url(#p04d05f8813)">
     <use xlink:href="#m9dcd9a8b55" x="0" y="155.344076" style="fill: #ccccff; fill-opacity: 0.55"/>
    </g>
   </g>
   <g id="PolyCollection_2">
    <defs>
     <path id="m6914b2c0ff" d="M 39.52296 -84.183587 
L 39.52296 -81.977534 
L 62.026028 -82.724538 
L 84.529095 -83.430811 
L 107.032163 -83.599542 
L 129.53523 -85.227155 
L 152.038298 -84.933378 
L 174.541365 -93.224685 
L 174.541365 -94.602274 
L 174.541365 -94.602274 
L 152.038298 -85.93152 
L 129.53523 -87.241046 
L 107.032163 -88.306265 
L 84.529095 -86.524034 
L 62.026028 -86.006073 
L 39.52296 -84.183587 
z
"/>
    </defs>
    <g clip-path="url(#p04d05f8813)">
     <use xlink:href="#m6914b2c0ff" x="0" y="155.344076" style="fill: #e6ccff; fill-opacity: 0.55"/>
    </g>
   </g>
   <g id="patch_3">
    <path d="M 36.1475 113.162 
L 36.1475 29.03 
" style="fill: none; stroke: #25282d; stroke-width: 0.72; stroke-linejoin: miter; stroke-linecap: square"/>
   </g>
   <g id="patch_4">
    <path d="M 177.916825 113.162 
L 177.916825 29.03 
" style="fill: none; stroke: #25282d; stroke-width: 0.72; stroke-linejoin: miter; stroke-linecap: square"/>
   </g>
   <g id="patch_5">
    <path d="M 36.1475 113.162 
L 177.916825 113.162 
" style="fill: none; stroke: #25282d; stroke-width: 0.72; stroke-linejoin: miter; stroke-linecap: square"/>
   </g>
   <g id="patch_6">
    <path d="M 36.1475 29.03 
L 177.916825 29.03 
" style="fill: none; stroke: #25282d; stroke-width: 0.72; stroke-linejoin: miter; stroke-linecap: square"/>
   </g>
   <g id="text_14">
    <!-- (a) Forward pass -->
    <g transform="translate(74.102631 146.047795) scale(0.098 -0.098)">
     <defs>
      <path id="TimesNewRomanPSMT-28" d="M 1988 -1253 
L 1988 -1369 
Q 1516 -1131 1200 -813 
Q 750 -359 506 256 
Q 263 872 263 1534 
Q 263 2503 741 3301 
Q 1219 4100 1988 4444 
L 1988 4313 
Q 1603 4100 1356 3731 
Q 1109 3363 987 2797 
Q 866 2231 866 1616 
Q 866 947 969 400 
Q 1050 -31 1165 -292 
Q 1281 -553 1476 -793 
Q 1672 -1034 1988 -1253 
z
" transform="scale(0.015625)"/>
      <path id="TimesNewRomanPSMT-61" d="M 1822 413 
Q 1381 72 1269 19 
Q 1100 -59 909 -59 
Q 613 -59 420 144 
Q 228 347 228 678 
Q 228 888 322 1041 
Q 450 1253 767 1440 
Q 1084 1628 1822 1897 
L 1822 2009 
Q 1822 2438 1686 2597 
Q 1550 2756 1291 2756 
Q 1094 2756 978 2650 
Q 859 2544 859 2406 
L 866 2225 
Q 866 2081 792 2003 
Q 719 1925 600 1925 
Q 484 1925 411 2006 
Q 338 2088 338 2228 
Q 338 2497 613 2722 
Q 888 2947 1384 2947 
Q 1766 2947 2009 2819 
Q 2194 2722 2281 2516 
Q 2338 2381 2338 1966 
L 2338 994 
Q 2338 584 2353 492 
Q 2369 400 2405 369 
Q 2441 338 2488 338 
Q 2538 338 2575 359 
Q 2641 400 2828 588 
L 2828 413 
Q 2478 -56 2159 -56 
Q 2006 -56 1915 50 
Q 1825 156 1822 413 
z
M 1822 616 
L 1822 1706 
Q 1350 1519 1213 1441 
Q 966 1303 859 1153 
Q 753 1003 753 825 
Q 753 600 887 451 
Q 1022 303 1197 303 
Q 1434 303 1822 616 
z
" transform="scale(0.015625)"/>
      <path id="TimesNewRomanPSMT-29" d="M 144 4313 
L 144 4444 
Q 619 4209 934 3891 
Q 1381 3434 1625 2820 
Q 1869 2206 1869 1541 
Q 1869 572 1392 -226 
Q 916 -1025 144 -1369 
L 144 -1253 
Q 528 -1038 776 -670 
Q 1025 -303 1145 264 
Q 1266 831 1266 1447 
Q 1266 2113 1163 2663 
Q 1084 3094 967 3353 
Q 850 3613 656 3853 
Q 463 4094 144 4313 
z
" transform="scale(0.015625)"/>
      <path id="TimesNewRomanPSMT-20" transform="scale(0.015625)"/>
      <path id="TimesNewRomanPSMT-46" d="M 1309 4006 
L 1309 2341 
L 2081 2341 
Q 2347 2341 2470 2458 
Q 2594 2575 2634 2922 
L 2750 2922 
L 2750 1488 
L 2634 1488 
Q 2631 1734 2570 1850 
Q 2509 1966 2401 2023 
Q 2294 2081 2081 2081 
L 1309 2081 
L 1309 750 
Q 1309 428 1350 325 
Q 1381 247 1481 191 
Q 1619 116 1769 116 
L 1922 116 
L 1922 0 
L 103 0 
L 103 116 
L 253 116 
Q 516 116 634 269 
Q 709 369 709 750 
L 709 3488 
Q 709 3809 669 3913 
Q 638 3991 541 4047 
Q 406 4122 253 4122 
L 103 4122 
L 103 4238 
L 3256 4238 
L 3297 3306 
L 3188 3306 
Q 3106 3603 2998 3742 
Q 2891 3881 2733 3943 
Q 2575 4006 2244 4006 
L 1309 4006 
z
" transform="scale(0.015625)"/>
      <path id="TimesNewRomanPSMT-6f" d="M 1600 2947 
Q 2250 2947 2644 2453 
Q 2978 2031 2978 1484 
Q 2978 1100 2793 706 
Q 2609 313 2286 112 
Q 1963 -88 1566 -88 
Q 919 -88 538 428 
Q 216 863 216 1403 
Q 216 1797 411 2186 
Q 606 2575 925 2761 
Q 1244 2947 1600 2947 
z
M 1503 2744 
Q 1338 2744 1170 2645 
Q 1003 2547 900 2300 
Q 797 2053 797 1666 
Q 797 1041 1045 587 
Q 1294 134 1700 134 
Q 2003 134 2200 384 
Q 2397 634 2397 1244 
Q 2397 2006 2069 2444 
Q 1847 2744 1503 2744 
z
" transform="scale(0.015625)"/>
      <path id="TimesNewRomanPSMT-72" d="M 1038 2947 
L 1038 2303 
Q 1397 2947 1775 2947 
Q 1947 2947 2059 2842 
Q 2172 2738 2172 2600 
Q 2172 2478 2090 2393 
Q 2009 2309 1897 2309 
Q 1788 2309 1652 2417 
Q 1516 2525 1450 2525 
Q 1394 2525 1328 2463 
Q 1188 2334 1038 2041 
L 1038 669 
Q 1038 431 1097 309 
Q 1138 225 1241 169 
Q 1344 113 1538 113 
L 1538 0 
L 72 0 
L 72 113 
Q 291 113 397 181 
Q 475 231 506 341 
Q 522 394 522 644 
L 522 1753 
Q 522 2253 501 2348 
Q 481 2444 426 2487 
Q 372 2531 291 2531 
Q 194 2531 72 2484 
L 41 2597 
L 906 2947 
L 1038 2947 
z
" transform="scale(0.015625)"/>
      <path id="TimesNewRomanPSMT-77" d="M 41 2863 
L 1241 2863 
L 1241 2747 
Q 1075 2734 1023 2687 
Q 972 2641 972 2553 
Q 972 2456 1025 2319 
L 1638 672 
L 2253 2013 
L 2091 2434 
Q 2016 2622 1894 2694 
Q 1825 2738 1638 2747 
L 1638 2863 
L 3000 2863 
L 3000 2747 
Q 2775 2738 2681 2666 
Q 2619 2616 2619 2506 
Q 2619 2444 2644 2378 
L 3294 734 
L 3897 2319 
Q 3959 2488 3959 2588 
Q 3959 2647 3898 2694 
Q 3838 2741 3659 2747 
L 3659 2863 
L 4563 2863 
L 4563 2747 
Q 4291 2706 4163 2378 
L 3206 -88 
L 3078 -88 
L 2363 1741 
L 1528 -88 
L 1413 -88 
L 494 2319 
Q 403 2547 315 2626 
Q 228 2706 41 2747 
L 41 2863 
z
" transform="scale(0.015625)"/>
      <path id="TimesNewRomanPSMT-64" d="M 2222 322 
Q 2013 103 1813 7 
Q 1613 -88 1381 -88 
Q 913 -88 563 304 
Q 213 697 213 1313 
Q 213 1928 600 2439 
Q 988 2950 1597 2950 
Q 1975 2950 2222 2709 
L 2222 3238 
Q 2222 3728 2198 3840 
Q 2175 3953 2125 3993 
Q 2075 4034 2000 4034 
Q 1919 4034 1784 3984 
L 1744 4094 
L 2597 4444 
L 2738 4444 
L 2738 1134 
Q 2738 631 2761 520 
Q 2784 409 2836 365 
Q 2888 322 2956 322 
Q 3041 322 3181 375 
L 3216 266 
L 2366 -88 
L 2222 -88 
L 2222 322 
z
M 2222 541 
L 2222 2016 
Q 2203 2228 2109 2403 
Q 2016 2578 1861 2667 
Q 1706 2756 1559 2756 
Q 1284 2756 1069 2509 
Q 784 2184 784 1559 
Q 784 928 1059 592 
Q 1334 256 1672 256 
Q 1956 256 2222 541 
z
" transform="scale(0.015625)"/>
      <path id="TimesNewRomanPSMT-70" d="M -6 2578 
L 875 2934 
L 994 2934 
L 994 2266 
Q 1216 2644 1439 2795 
Q 1663 2947 1909 2947 
Q 2341 2947 2628 2609 
Q 2981 2197 2981 1534 
Q 2981 794 2556 309 
Q 2206 -88 1675 -88 
Q 1444 -88 1275 -22 
Q 1150 25 994 166 
L 994 -706 
Q 994 -1000 1030 -1079 
Q 1066 -1159 1155 -1206 
Q 1244 -1253 1478 -1253 
L 1478 -1369 
L -22 -1369 
L -22 -1253 
L 56 -1253 
Q 228 -1256 350 -1188 
Q 409 -1153 442 -1076 
Q 475 -1000 475 -688 
L 475 2019 
Q 475 2297 450 2372 
Q 425 2447 370 2484 
Q 316 2522 222 2522 
Q 147 2522 31 2478 
L -6 2578 
z
M 994 2081 
L 994 1013 
Q 994 666 1022 556 
Q 1066 375 1236 237 
Q 1406 100 1666 100 
Q 1978 100 2172 344 
Q 2425 663 2425 1241 
Q 2425 1897 2138 2250 
Q 1938 2494 1663 2494 
Q 1513 2494 1366 2419 
Q 1253 2363 994 2081 
z
" transform="scale(0.015625)"/>
      <path id="TimesNewRomanPSMT-73" d="M 2050 2947 
L 2050 1972 
L 1947 1972 
Q 1828 2431 1642 2597 
Q 1456 2763 1169 2763 
Q 950 2763 815 2647 
Q 681 2531 681 2391 
Q 681 2216 781 2091 
Q 878 1963 1175 1819 
L 1631 1597 
Q 2266 1288 2266 781 
Q 2266 391 1970 151 
Q 1675 -88 1309 -88 
Q 1047 -88 709 6 
Q 606 38 541 38 
Q 469 38 428 -44 
L 325 -44 
L 325 978 
L 428 978 
Q 516 541 762 319 
Q 1009 97 1316 97 
Q 1531 97 1667 223 
Q 1803 350 1803 528 
Q 1803 744 1651 891 
Q 1500 1038 1047 1263 
Q 594 1488 453 1669 
Q 313 1847 313 2119 
Q 313 2472 555 2709 
Q 797 2947 1181 2947 
Q 1350 2947 1591 2875 
Q 1750 2828 1803 2828 
Q 1853 2828 1881 2850 
Q 1909 2872 1947 2947 
L 2050 2947 
z
" transform="scale(0.015625)"/>
     </defs>
     <use xlink:href="#TimesNewRomanPSMT-28"/>
     <use xlink:href="#TimesNewRomanPSMT-61" x="33.300781"/>
     <use xlink:href="#TimesNewRomanPSMT-29" x="77.685547"/>
     <use xlink:href="#TimesNewRomanPSMT-20" x="110.986328"/>
     <use xlink:href="#TimesNewRomanPSMT-46" x="135.986328"/>
     <use xlink:href="#TimesNewRomanPSMT-6f" x="191.601562"/>
     <use xlink:href="#TimesNewRomanPSMT-72" x="241.601562"/>
     <use xlink:href="#TimesNewRomanPSMT-77" x="274.902344"/>
     <use xlink:href="#TimesNewRomanPSMT-61" x="347.119141"/>
     <use xlink:href="#TimesNewRomanPSMT-72" x="391.503906"/>
     <use xlink:href="#TimesNewRomanPSMT-64" x="424.804688"/>
     <use xlink:href="#TimesNewRomanPSMT-20" x="474.804688"/>
     <use xlink:href="#TimesNewRomanPSMT-70" x="499.804688"/>
     <use xlink:href="#TimesNewRomanPSMT-61" x="549.804688"/>
     <use xlink:href="#TimesNewRomanPSMT-73" x="594.189453"/>
     <use xlink:href="#TimesNewRomanPSMT-73" x="633.105469"/>
    </g>
   </g>
   <g id="line2d_51">
    <path d="M 39.52296 108.350417 
L 62.026028 96.066506 
L 84.529095 88.199562 
L 107.032163 78.679417 
L 129.53523 71.861752 
L 152.038298 63.092531 
L 174.541365 51.460581 
" clip-path="url(#p04d05f8813)" style="fill: none; stroke: #0000ff; stroke-width: 1.25; stroke-linecap: square"/>
    <defs>
     <path id="m680a4ca0b4" d="M 0 2 
C 0.530406 2 1.03916 1.789267 1.414214 1.414214 
C 1.789267 1.03916 2 0.530406 2 0 
C 2 -0.530406 1.789267 -1.03916 1.414214 -1.414214 
C 1.03916 -1.789267 0.530406 -2 0 -2 
C -0.530406 -2 -1.03916 -1.789267 -1.414214 -1.414214 
C -1.789267 -1.03916 -2 -0.530406 -2 0 
C -2 0.530406 -1.789267 1.03916 -1.414214 1.414214 
C -1.03916 1.789267 -0.530406 2 0 2 
z
" style="stroke: #0000ff"/>
    </defs>
    <g clip-path="url(#p04d05f8813)">
     <use xlink:href="#m680a4ca0b4" x="39.52296" y="108.350417" style="fill: #0000ff; stroke: #0000ff"/>
     <use xlink:href="#m680a4ca0b4" x="62.026028" y="96.066506" style="fill: #0000ff; stroke: #0000ff"/>
     <use xlink:href="#m680a4ca0b4" x="84.529095" y="88.199562" style="fill: #0000ff; stroke: #0000ff"/>
     <use xlink:href="#m680a4ca0b4" x="107.032163" y="78.679417" style="fill: #0000ff; stroke: #0000ff"/>
     <use xlink:href="#m680a4ca0b4" x="129.53523" y="71.861752" style="fill: #0000ff; stroke: #0000ff"/>
     <use xlink:href="#m680a4ca0b4" x="152.038298" y="63.092531" style="fill: #0000ff; stroke: #0000ff"/>
     <use xlink:href="#m680a4ca0b4" x="174.541365" y="51.460581" style="fill: #0000ff; stroke: #0000ff"/>
    </g>
   </g>
   <g id="line2d_52">
    <path d="M 39.52296 72.69416 
L 62.026028 71.252956 
L 84.529095 71.021159 
L 107.032163 69.492257 
L 129.53523 69.513435 
L 152.038298 70.204391 
L 174.541365 61.563481 
" clip-path="url(#p04d05f8813)" style="fill: none; stroke-dasharray: 4.625,2; stroke-dashoffset: 0; stroke: #8000ff; stroke-width: 1.25"/>
    <defs>
     <path id="m5d6d832f3a" d="M -2 2 
L 2 2 
L 2 -2 
L -2 -2 
z
" style="stroke: #8000ff; stroke-linejoin: miter"/>
    </defs>
    <g clip-path="url(#p04d05f8813)">
     <use xlink:href="#m5d6d832f3a" x="39.52296" y="72.69416" style="fill: #8000ff; stroke: #8000ff; stroke-linejoin: miter"/>
     <use xlink:href="#m5d6d832f3a" x="62.026028" y="71.252956" style="fill: #8000ff; stroke: #8000ff; stroke-linejoin: miter"/>
     <use xlink:href="#m5d6d832f3a" x="84.529095" y="71.021159" style="fill: #8000ff; stroke: #8000ff; stroke-linejoin: miter"/>
     <use xlink:href="#m5d6d832f3a" x="107.032163" y="69.492257" style="fill: #8000ff; stroke: #8000ff; stroke-linejoin: miter"/>
     <use xlink:href="#m5d6d832f3a" x="129.53523" y="69.513435" style="fill: #8000ff; stroke: #8000ff; stroke-linejoin: miter"/>
     <use xlink:href="#m5d6d832f3a" x="152.038298" y="70.204391" style="fill: #8000ff; stroke: #8000ff; stroke-linejoin: miter"/>
     <use xlink:href="#m5d6d832f3a" x="174.541365" y="61.563481" style="fill: #8000ff; stroke: #8000ff; stroke-linejoin: miter"/>
    </g>
   </g>
  </g>
  <g id="axes_2">
   <g id="patch_7">
    <path d="M 196.346837 113.162 
L 338.116163 113.162 
L 338.116163 29.03 
L 196.346837 29.03 
z
" style="fill: #ffffff"/>
   </g>
   <g id="matplotlib.axis_3">
    <g id="xtick_8">
     <g id="line2d_53">
      <path d="M 199.722298 113.162 
L 199.722298 29.03 
" clip-path="url(#pc6320ddaee)" style="fill: none; stroke: #b8bdc7; stroke-opacity: 0.45; stroke-width: 0.55; stroke-linecap: square"/>
     </g>
     <g id="line2d_54">
      <g>
       <use xlink:href="#m5c27b3ea63" x="199.722298" y="113.162" style="stroke: #000000; stroke-width: 0.7"/>
      </g>
     </g>
     <g id="text_15">
      <!-- 2 -->
      <g transform="translate(197.497923 122.98825) scale(0.08 -0.08)">
       <use xlink:href="#ArialMT-32"/>
      </g>
     </g>
    </g>
    <g id="xtick_9">
     <g id="line2d_55">
      <path d="M 222.225365 113.162 
L 222.225365 29.03 
" clip-path="url(#pc6320ddaee)" style="fill: none; stroke: #b8bdc7; stroke-opacity: 0.45; stroke-width: 0.55; stroke-linecap: square"/>
     </g>
     <g id="line2d_56">
      <g>
       <use xlink:href="#m5c27b3ea63" x="222.225365" y="113.162" style="stroke: #000000; stroke-width: 0.7"/>
      </g>
     </g>
     <g id="text_16">
      <!-- 5 -->
      <g transform="translate(220.00099 122.98825) scale(0.08 -0.08)">
       <use xlink:href="#ArialMT-35"/>
      </g>
     </g>
    </g>
    <g id="xtick_10">
     <g id="line2d_57">
      <path d="M 244.728433 113.162 
L 244.728433 29.03 
" clip-path="url(#pc6320ddaee)" style="fill: none; stroke: #b8bdc7; stroke-opacity: 0.45; stroke-width: 0.55; stroke-linecap: square"/>
     </g>
     <g id="line2d_58">
      <g>
       <use xlink:href="#m5c27b3ea63" x="244.728433" y="113.162" style="stroke: #000000; stroke-width: 0.7"/>
      </g>
     </g>
     <g id="text_17">
      <!-- 10 -->
      <g transform="translate(240.279683 122.98825) scale(0.08 -0.08)">
       <use xlink:href="#ArialMT-31"/>
       <use xlink:href="#ArialMT-30" x="55.615234"/>
      </g>
     </g>
    </g>
    <g id="xtick_11">
     <g id="line2d_59">
      <path d="M 267.2315 113.162 
L 267.2315 29.03 
" clip-path="url(#pc6320ddaee)" style="fill: none; stroke: #b8bdc7; stroke-opacity: 0.45; stroke-width: 0.55; stroke-linecap: square"/>
     </g>
     <g id="line2d_60">
      <g>
       <use xlink:href="#m5c27b3ea63" x="267.2315" y="113.162" style="stroke: #000000; stroke-width: 0.7"/>
      </g>
     </g>
     <g id="text_18">
      <!-- 20 -->
      <g transform="translate(262.78275 122.98825) scale(0.08 -0.08)">
       <use xlink:href="#ArialMT-32"/>
       <use xlink:href="#ArialMT-30" x="55.615234"/>
      </g>
     </g>
    </g>
    <g id="xtick_12">
     <g id="line2d_61">
      <path d="M 289.734567 113.162 
L 289.734567 29.03 
" clip-path="url(#pc6320ddaee)" style="fill: none; stroke: #b8bdc7; stroke-opacity: 0.45; stroke-width: 0.55; stroke-linecap: square"/>
     </g>
     <g id="line2d_62">
      <g>
       <use xlink:href="#m5c27b3ea63" x="289.734567" y="113.162" style="stroke: #000000; stroke-width: 0.7"/>
      </g>
     </g>
     <g id="text_19">
      <!-- 40 -->
      <g transform="translate(285.285817 122.98825) scale(0.08 -0.08)">
       <use xlink:href="#ArialMT-34"/>
       <use xlink:href="#ArialMT-30" x="55.615234"/>
      </g>
     </g>
    </g>
    <g id="xtick_13">
     <g id="line2d_63">
      <path d="M 312.237635 113.162 
L 312.237635 29.03 
" clip-path="url(#pc6320ddaee)" style="fill: none; stroke: #b8bdc7; stroke-opacity: 0.45; stroke-width: 0.55; stroke-linecap: square"/>
     </g>
     <g id="line2d_64">
      <g>
       <use xlink:href="#m5c27b3ea63" x="312.237635" y="113.162" style="stroke: #000000; stroke-width: 0.7"/>
      </g>
     </g>
     <g id="text_20">
      <!-- 80 -->
      <g transform="translate(307.788885 122.98825) scale(0.08 -0.08)">
       <use xlink:href="#ArialMT-38"/>
       <use xlink:href="#ArialMT-30" x="55.615234"/>
      </g>
     </g>
    </g>
    <g id="xtick_14">
     <g id="line2d_65">
      <path d="M 334.740702 113.162 
L 334.740702 29.03 
" clip-path="url(#pc6320ddaee)" style="fill: none; stroke: #b8bdc7; stroke-opacity: 0.45; stroke-width: 0.55; stroke-linecap: square"/>
     </g>
     <g id="line2d_66">
      <g>
       <use xlink:href="#m5c27b3ea63" x="334.740702" y="113.162" style="stroke: #000000; stroke-width: 0.7"/>
      </g>
     </g>
     <g id="text_21">
      <!-- 160 -->
      <g transform="translate(328.067577 122.98825) scale(0.08 -0.08)">
       <use xlink:href="#ArialMT-31"/>
       <use xlink:href="#ArialMT-36" x="55.615234"/>
       <use xlink:href="#ArialMT-30" x="111.230469"/>
      </g>
     </g>
    </g>
    <g id="text_22">
     <!-- Horizon $N$ -->
     <g transform="translate(249.3115 131.8045) scale(0.08 -0.08)">
      <use xlink:href="#ArialMT-48" transform="translate(0 0.09375)"/>
      <use xlink:href="#ArialMT-6f" transform="translate(72.216797 0.09375)"/>
      <use xlink:href="#ArialMT-72" transform="translate(127.832031 0.09375)"/>
      <use xlink:href="#ArialMT-69" transform="translate(161.132812 0.09375)"/>
      <use xlink:href="#ArialMT-7a" transform="translate(183.349609 0.09375)"/>
      <use xlink:href="#ArialMT-6f" transform="translate(233.349609 0.09375)"/>
      <use xlink:href="#ArialMT-6e" transform="translate(288.964844 0.09375)"/>
      <use xlink:href="#ArialMT-20" transform="translate(344.580078 0.09375)"/>
      <use xlink:href="#DejaVuSans-Oblique-4e" transform="translate(372.363281 0.09375)"/>
     </g>
    </g>
   </g>
   <g id="matplotlib.axis_4">
    <g id="ytick_33">
     <g id="line2d_67">
      <path d="M 196.346837 106.909301 
L 338.116163 106.909301 
" clip-path="url(#pc6320ddaee)" style="fill: none; stroke: #b8bdc7; stroke-opacity: 0.45; stroke-width: 0.55; stroke-linecap: square"/>
     </g>
     <g id="line2d_68">
      <g>
       <use xlink:href="#mf7d2882926" x="196.346837" y="106.909301" style="stroke: #000000; stroke-width: 0.7"/>
      </g>
     </g>
    </g>
    <g id="ytick_34">
     <g id="line2d_69">
      <path d="M 196.346837 82.05885 
L 338.116163 82.05885 
" clip-path="url(#pc6320ddaee)" style="fill: none; stroke: #b8bdc7; stroke-opacity: 0.45; stroke-width: 0.55; stroke-linecap: square"/>
     </g>
     <g id="line2d_70">
      <g>
       <use xlink:href="#mf7d2882926" x="196.346837" y="82.05885" style="stroke: #000000; stroke-width: 0.7"/>
      </g>
     </g>
    </g>
    <g id="ytick_35">
     <g id="line2d_71">
      <path d="M 196.346837 57.208398 
L 338.116163 57.208398 
" clip-path="url(#pc6320ddaee)" style="fill: none; stroke: #b8bdc7; stroke-opacity: 0.45; stroke-width: 0.55; stroke-linecap: square"/>
     </g>
     <g id="line2d_72">
      <g>
       <use xlink:href="#mf7d2882926" x="196.346837" y="57.208398" style="stroke: #000000; stroke-width: 0.7"/>
      </g>
     </g>
    </g>
    <g id="ytick_36">
     <g id="line2d_73">
      <path d="M 196.346837 32.357946 
L 338.116163 32.357946 
" clip-path="url(#pc6320ddaee)" style="fill: none; stroke: #b8bdc7; stroke-opacity: 0.45; stroke-width: 0.55; stroke-linecap: square"/>
     </g>
     <g id="line2d_74">
      <g>
       <use xlink:href="#mf7d2882926" x="196.346837" y="32.357946" style="stroke: #000000; stroke-width: 0.7"/>
      </g>
     </g>
    </g>
    <g id="ytick_37">
     <g id="line2d_75">
      <g>
       <use xlink:href="#m552c8fb9e7" x="196.346837" y="112.422343" style="stroke: #000000; stroke-width: 0.55"/>
      </g>
     </g>
    </g>
    <g id="ytick_38">
     <g id="line2d_76">
      <g>
       <use xlink:href="#m552c8fb9e7" x="196.346837" y="110.758685" style="stroke: #000000; stroke-width: 0.55"/>
      </g>
     </g>
    </g>
    <g id="ytick_39">
     <g id="line2d_77">
      <g>
       <use xlink:href="#m552c8fb9e7" x="196.346837" y="109.317559" style="stroke: #000000; stroke-width: 0.55"/>
      </g>
     </g>
    </g>
    <g id="ytick_40">
     <g id="line2d_78">
      <g>
       <use xlink:href="#m552c8fb9e7" x="196.346837" y="108.046396" style="stroke: #000000; stroke-width: 0.55"/>
      </g>
     </g>
    </g>
    <g id="ytick_41">
     <g id="line2d_79">
      <g>
       <use xlink:href="#m552c8fb9e7" x="196.346837" y="99.42857" style="stroke: #000000; stroke-width: 0.55"/>
      </g>
     </g>
    </g>
    <g id="ytick_42">
     <g id="line2d_80">
      <g>
       <use xlink:href="#m552c8fb9e7" x="196.346837" y="95.052623" style="stroke: #000000; stroke-width: 0.55"/>
      </g>
     </g>
    </g>
    <g id="ytick_43">
     <g id="line2d_81">
      <g>
       <use xlink:href="#m552c8fb9e7" x="196.346837" y="91.947839" style="stroke: #000000; stroke-width: 0.55"/>
      </g>
     </g>
    </g>
    <g id="ytick_44">
     <g id="line2d_82">
      <g>
       <use xlink:href="#m552c8fb9e7" x="196.346837" y="89.539581" style="stroke: #000000; stroke-width: 0.55"/>
      </g>
     </g>
    </g>
    <g id="ytick_45">
     <g id="line2d_83">
      <g>
       <use xlink:href="#m552c8fb9e7" x="196.346837" y="87.571891" style="stroke: #000000; stroke-width: 0.55"/>
      </g>
     </g>
    </g>
    <g id="ytick_46">
     <g id="line2d_84">
      <g>
       <use xlink:href="#m552c8fb9e7" x="196.346837" y="85.908233" style="stroke: #000000; stroke-width: 0.55"/>
      </g>
     </g>
    </g>
    <g id="ytick_47">
     <g id="line2d_85">
      <g>
       <use xlink:href="#m552c8fb9e7" x="196.346837" y="84.467107" style="stroke: #000000; stroke-width: 0.55"/>
      </g>
     </g>
    </g>
    <g id="ytick_48">
     <g id="line2d_86">
      <g>
       <use xlink:href="#m552c8fb9e7" x="196.346837" y="83.195944" style="stroke: #000000; stroke-width: 0.55"/>
      </g>
     </g>
    </g>
    <g id="ytick_49">
     <g id="line2d_87">
      <g>
       <use xlink:href="#m552c8fb9e7" x="196.346837" y="74.578118" style="stroke: #000000; stroke-width: 0.55"/>
      </g>
     </g>
    </g>
    <g id="ytick_50">
     <g id="line2d_88">
      <g>
       <use xlink:href="#m552c8fb9e7" x="196.346837" y="70.202171" style="stroke: #000000; stroke-width: 0.55"/>
      </g>
     </g>
    </g>
    <g id="ytick_51">
     <g id="line2d_89">
      <g>
       <use xlink:href="#m552c8fb9e7" x="196.346837" y="67.097387" style="stroke: #000000; stroke-width: 0.55"/>
      </g>
     </g>
    </g>
    <g id="ytick_52">
     <g id="line2d_90">
      <g>
       <use xlink:href="#m552c8fb9e7" x="196.346837" y="64.689129" style="stroke: #000000; stroke-width: 0.55"/>
      </g>
     </g>
    </g>
    <g id="ytick_53">
     <g id="line2d_91">
      <g>
       <use xlink:href="#m552c8fb9e7" x="196.346837" y="62.721439" style="stroke: #000000; stroke-width: 0.55"/>
      </g>
     </g>
    </g>
    <g id="ytick_54">
     <g id="line2d_92">
      <g>
       <use xlink:href="#m552c8fb9e7" x="196.346837" y="61.057781" style="stroke: #000000; stroke-width: 0.55"/>
      </g>
     </g>
    </g>
    <g id="ytick_55">
     <g id="line2d_93">
      <g>
       <use xlink:href="#m552c8fb9e7" x="196.346837" y="59.616655" style="stroke: #000000; stroke-width: 0.55"/>
      </g>
     </g>
    </g>
    <g id="ytick_56">
     <g id="line2d_94">
      <g>
       <use xlink:href="#m552c8fb9e7" x="196.346837" y="58.345492" style="stroke: #000000; stroke-width: 0.55"/>
      </g>
     </g>
    </g>
    <g id="ytick_57">
     <g id="line2d_95">
      <g>
       <use xlink:href="#m552c8fb9e7" x="196.346837" y="49.727666" style="stroke: #000000; stroke-width: 0.55"/>
      </g>
     </g>
    </g>
    <g id="ytick_58">
     <g id="line2d_96">
      <g>
       <use xlink:href="#m552c8fb9e7" x="196.346837" y="45.351719" style="stroke: #000000; stroke-width: 0.55"/>
      </g>
     </g>
    </g>
    <g id="ytick_59">
     <g id="line2d_97">
      <g>
       <use xlink:href="#m552c8fb9e7" x="196.346837" y="42.246935" style="stroke: #000000; stroke-width: 0.55"/>
      </g>
     </g>
    </g>
    <g id="ytick_60">
     <g id="line2d_98">
      <g>
       <use xlink:href="#m552c8fb9e7" x="196.346837" y="39.838677" style="stroke: #000000; stroke-width: 0.55"/>
      </g>
     </g>
    </g>
    <g id="ytick_61">
     <g id="line2d_99">
      <g>
       <use xlink:href="#m552c8fb9e7" x="196.346837" y="37.870988" style="stroke: #000000; stroke-width: 0.55"/>
      </g>
     </g>
    </g>
    <g id="ytick_62">
     <g id="line2d_100">
      <g>
       <use xlink:href="#m552c8fb9e7" x="196.346837" y="36.20733" style="stroke: #000000; stroke-width: 0.55"/>
      </g>
     </g>
    </g>
    <g id="ytick_63">
     <g id="line2d_101">
      <g>
       <use xlink:href="#m552c8fb9e7" x="196.346837" y="34.766204" style="stroke: #000000; stroke-width: 0.55"/>
      </g>
     </g>
    </g>
    <g id="ytick_64">
     <g id="line2d_102">
      <g>
       <use xlink:href="#m552c8fb9e7" x="196.346837" y="33.49504" style="stroke: #000000; stroke-width: 0.55"/>
      </g>
     </g>
    </g>
   </g>
   <g id="PolyCollection_3">
    <defs>
     <path id="m3334115d04" d="M 199.722298 -76.818225 
L 199.722298 -74.368171 
L 222.225365 -80.212095 
L 244.728433 -96.822681 
L 267.2315 -108.735161 
L 289.734567 -103.387561 
L 312.237635 -103.231567 
L 334.740702 -111.340805 
L 334.740702 -119.72728 
L 334.740702 -119.72728 
L 312.237635 -105.930836 
L 289.734567 -104.704138 
L 267.2315 -109.088264 
L 244.728433 -97.059211 
L 222.225365 -81.343791 
L 199.722298 -76.818225 
z
"/>
    </defs>
    <g clip-path="url(#pc6320ddaee)">
     <use xlink:href="#m3334115d04" x="0" y="155.344076" style="fill: #ccccff; fill-opacity: 0.55"/>
    </g>
   </g>
   <g id="PolyCollection_4">
    <defs>
     <path id="m35f7fda131" d="M 199.722298 -76.373499 
L 199.722298 -70.014371 
L 222.225365 -70.511803 
L 244.728433 -65.477391 
L 267.2315 -64.949034 
L 289.734567 -70.248028 
L 312.237635 -74.395283 
L 334.740702 -76.09501 
L 334.740702 -81.258016 
L 334.740702 -81.258016 
L 312.237635 -81.323195 
L 289.734567 -77.391044 
L 267.2315 -78.357842 
L 244.728433 -76.761919 
L 222.225365 -75.484272 
L 199.722298 -76.373499 
z
"/>
    </defs>
    <g clip-path="url(#pc6320ddaee)">
     <use xlink:href="#m35f7fda131" x="0" y="155.344076" style="fill: #e6ccff; fill-opacity: 0.55"/>
    </g>
   </g>
   <g id="patch_8">
    <path d="M 196.346837 113.162 
L 196.346837 29.03 
" style="fill: none; stroke: #25282d; stroke-width: 0.72; stroke-linejoin: miter; stroke-linecap: square"/>
   </g>
   <g id="patch_9">
    <path d="M 338.116163 113.162 
L 338.116163 29.03 
" style="fill: none; stroke: #25282d; stroke-width: 0.72; stroke-linejoin: miter; stroke-linecap: square"/>
   </g>
   <g id="patch_10">
    <path d="M 196.346837 113.162 
L 338.116163 113.162 
" style="fill: none; stroke: #25282d; stroke-width: 0.72; stroke-linejoin: miter; stroke-linecap: square"/>
   </g>
   <g id="patch_11">
    <path d="M 196.346837 29.03 
L 338.116163 29.03 
" style="fill: none; stroke: #25282d; stroke-width: 0.72; stroke-linejoin: miter; stroke-linecap: square"/>
   </g>
   <g id="text_23">
    <!-- (b) Backward pass -->
    <g transform="translate(230.764781 146.047795) scale(0.098 -0.098)">
     <defs>
      <path id="TimesNewRomanPSMT-62" d="M 984 2369 
Q 1400 2947 1881 2947 
Q 2322 2947 2650 2570 
Q 2978 2194 2978 1541 
Q 2978 778 2472 313 
Q 2038 -88 1503 -88 
Q 1253 -88 995 3 
Q 738 94 469 275 
L 469 3241 
Q 469 3728 445 3840 
Q 422 3953 372 3993 
Q 322 4034 247 4034 
Q 159 4034 28 3984 
L -16 4094 
L 844 4444 
L 984 4444 
L 984 2369 
z
M 984 2169 
L 984 456 
Q 1144 300 1314 220 
Q 1484 141 1663 141 
Q 1947 141 2192 453 
Q 2438 766 2438 1363 
Q 2438 1913 2192 2208 
Q 1947 2503 1634 2503 
Q 1469 2503 1303 2419 
Q 1178 2356 984 2169 
z
" transform="scale(0.015625)"/>
      <path id="TimesNewRomanPSMT-42" d="M 2956 2163 
Q 3397 2069 3616 1863 
Q 3919 1575 3919 1159 
Q 3919 844 3719 555 
Q 3519 266 3170 133 
Q 2822 0 2106 0 
L 106 0 
L 106 116 
L 266 116 
Q 531 116 647 284 
Q 719 394 719 750 
L 719 3488 
Q 719 3881 628 3984 
Q 506 4122 266 4122 
L 106 4122 
L 106 4238 
L 1938 4238 
Q 2450 4238 2759 4163 
Q 3228 4050 3475 3764 
Q 3722 3478 3722 3106 
Q 3722 2788 3528 2536 
Q 3334 2284 2956 2163 
z
M 1319 2331 
Q 1434 2309 1582 2298 
Q 1731 2288 1909 2288 
Q 2366 2288 2595 2386 
Q 2825 2484 2947 2687 
Q 3069 2891 3069 3131 
Q 3069 3503 2766 3765 
Q 2463 4028 1881 4028 
Q 1569 4028 1319 3959 
L 1319 2331 
z
M 1319 306 
Q 1681 222 2034 222 
Q 2600 222 2897 476 
Q 3194 731 3194 1106 
Q 3194 1353 3059 1581 
Q 2925 1809 2622 1940 
Q 2319 2072 1872 2072 
Q 1678 2072 1540 2065 
Q 1403 2059 1319 2044 
L 1319 306 
z
" transform="scale(0.015625)"/>
      <path id="TimesNewRomanPSMT-63" d="M 2631 1088 
Q 2516 522 2178 217 
Q 1841 -88 1431 -88 
Q 944 -88 581 321 
Q 219 731 219 1428 
Q 219 2103 620 2525 
Q 1022 2947 1584 2947 
Q 2006 2947 2278 2723 
Q 2550 2500 2550 2259 
Q 2550 2141 2473 2067 
Q 2397 1994 2259 1994 
Q 2075 1994 1981 2113 
Q 1928 2178 1911 2362 
Q 1894 2547 1784 2644 
Q 1675 2738 1481 2738 
Q 1169 2738 978 2506 
Q 725 2200 725 1697 
Q 725 1184 976 792 
Q 1228 400 1656 400 
Q 1963 400 2206 609 
Q 2378 753 2541 1131 
L 2631 1088 
z
" transform="scale(0.015625)"/>
      <path id="TimesNewRomanPSMT-6b" d="M 1047 4444 
L 1047 1597 
L 1775 2259 
Q 2006 2472 2044 2528 
Q 2069 2566 2069 2603 
Q 2069 2666 2017 2711 
Q 1966 2756 1847 2763 
L 1847 2863 
L 3091 2863 
L 3091 2763 
Q 2834 2756 2664 2684 
Q 2494 2613 2291 2428 
L 1556 1750 
L 2291 822 
Q 2597 438 2703 334 
Q 2853 188 2966 144 
Q 3044 113 3238 113 
L 3238 0 
L 1847 0 
L 1847 113 
Q 1966 116 2008 148 
Q 2050 181 2050 241 
Q 2050 313 1925 472 
L 1047 1594 
L 1047 644 
Q 1047 366 1086 278 
Q 1125 191 1197 153 
Q 1269 116 1509 113 
L 1509 0 
L 53 0 
L 53 113 
Q 272 113 381 166 
Q 447 200 481 272 
Q 528 375 528 628 
L 528 3234 
Q 528 3731 506 3842 
Q 484 3953 434 3995 
Q 384 4038 303 4038 
Q 238 4038 106 3984 
L 53 4094 
L 903 4444 
L 1047 4444 
z
" transform="scale(0.015625)"/>
     </defs>
     <use xlink:href="#TimesNewRomanPSMT-28"/>
     <use xlink:href="#TimesNewRomanPSMT-62" x="33.300781"/>
     <use xlink:href="#TimesNewRomanPSMT-29" x="83.300781"/>
     <use xlink:href="#TimesNewRomanPSMT-20" x="116.601562"/>
     <use xlink:href="#TimesNewRomanPSMT-42" x="141.601562"/>
     <use xlink:href="#TimesNewRomanPSMT-61" x="208.300781"/>
     <use xlink:href="#TimesNewRomanPSMT-63" x="252.685547"/>
     <use xlink:href="#TimesNewRomanPSMT-6b" x="297.070312"/>
     <use xlink:href="#TimesNewRomanPSMT-77" x="347.070312"/>
     <use xlink:href="#TimesNewRomanPSMT-61" x="419.287109"/>
     <use xlink:href="#TimesNewRomanPSMT-72" x="463.671875"/>
     <use xlink:href="#TimesNewRomanPSMT-64" x="496.972656"/>
     <use xlink:href="#TimesNewRomanPSMT-20" x="546.972656"/>
     <use xlink:href="#TimesNewRomanPSMT-70" x="571.972656"/>
     <use xlink:href="#TimesNewRomanPSMT-61" x="621.972656"/>
     <use xlink:href="#TimesNewRomanPSMT-73" x="666.357422"/>
     <use xlink:href="#TimesNewRomanPSMT-73" x="705.273438"/>
    </g>
   </g>
   <g id="line2d_103">
    <path d="M 199.722298 80.345967 
L 222.225365 74.51302 
L 244.728433 58.432299 
L 267.2315 46.53223 
L 289.734567 51.41998 
L 312.237635 51.553935 
L 334.740702 39.386332 
" clip-path="url(#pc6320ddaee)" style="fill: none; stroke: #0000ff; stroke-width: 1.25; stroke-linecap: square"/>
    <g clip-path="url(#pc6320ddaee)">
     <use xlink:href="#m680a4ca0b4" x="199.722298" y="80.345967" style="fill: #0000ff; stroke: #0000ff"/>
     <use xlink:href="#m680a4ca0b4" x="222.225365" y="74.51302" style="fill: #0000ff; stroke: #0000ff"/>
     <use xlink:href="#m680a4ca0b4" x="244.728433" y="58.432299" style="fill: #0000ff; stroke: #0000ff"/>
     <use xlink:href="#m680a4ca0b4" x="267.2315" y="46.53223" style="fill: #0000ff; stroke: #0000ff"/>
     <use xlink:href="#m680a4ca0b4" x="289.734567" y="51.41998" style="fill: #0000ff; stroke: #0000ff"/>
     <use xlink:href="#m680a4ca0b4" x="312.237635" y="51.553935" style="fill: #0000ff; stroke: #0000ff"/>
     <use xlink:href="#m680a4ca0b4" x="334.740702" y="39.386332" style="fill: #0000ff; stroke: #0000ff"/>
    </g>
   </g>
   <g id="line2d_104">
    <path d="M 199.722298 82.005516 
L 222.225365 83.527565 
L 244.728433 81.448554 
L 267.2315 83.183192 
L 289.734567 81.709485 
L 312.237635 76.071315 
L 334.740702 76.927864 
" clip-path="url(#pc6320ddaee)" style="fill: none; stroke-dasharray: 4.625,2; stroke-dashoffset: 0; stroke: #8000ff; stroke-width: 1.25"/>
    <g clip-path="url(#pc6320ddaee)">
     <use xlink:href="#m5d6d832f3a" x="199.722298" y="82.005516" style="fill: #8000ff; stroke: #8000ff; stroke-linejoin: miter"/>
     <use xlink:href="#m5d6d832f3a" x="222.225365" y="83.527565" style="fill: #8000ff; stroke: #8000ff; stroke-linejoin: miter"/>
     <use xlink:href="#m5d6d832f3a" x="244.728433" y="81.448554" style="fill: #8000ff; stroke: #8000ff; stroke-linejoin: miter"/>
     <use xlink:href="#m5d6d832f3a" x="267.2315" y="83.183192" style="fill: #8000ff; stroke: #8000ff; stroke-linejoin: miter"/>
     <use xlink:href="#m5d6d832f3a" x="289.734567" y="81.709485" style="fill: #8000ff; stroke: #8000ff; stroke-linejoin: miter"/>
     <use xlink:href="#m5d6d832f3a" x="312.237635" y="76.071315" style="fill: #8000ff; stroke: #8000ff; stroke-linejoin: miter"/>
     <use xlink:href="#m5d6d832f3a" x="334.740702" y="76.927864" style="fill: #8000ff; stroke: #8000ff; stroke-linejoin: miter"/>
    </g>
   </g>
  </g>
  <g id="axes_3">
   <g id="patch_12">
    <path d="M 356.546175 113.162 
L 498.3155 113.162 
L 498.3155 29.03 
L 356.546175 29.03 
z
" style="fill: #ffffff"/>
   </g>
   <g id="matplotlib.axis_5">
    <g id="xtick_15">
     <g id="line2d_105">
      <path d="M 359.921635 113.162 
L 359.921635 29.03 
" clip-path="url(#p443276c5bc)" style="fill: none; stroke: #b8bdc7; stroke-opacity: 0.45; stroke-width: 0.55; stroke-linecap: square"/>
     </g>
     <g id="line2d_106">
      <g>
       <use xlink:href="#m5c27b3ea63" x="359.921635" y="113.162" style="stroke: #000000; stroke-width: 0.7"/>
      </g>
     </g>
     <g id="text_24">
      <!-- 2 -->
      <g transform="translate(357.69726 122.98825) scale(0.08 -0.08)">
       <use xlink:href="#ArialMT-32"/>
      </g>
     </g>
    </g>
    <g id="xtick_16">
     <g id="line2d_107">
      <path d="M 382.424702 113.162 
L 382.424702 29.03 
" clip-path="url(#p443276c5bc)" style="fill: none; stroke: #b8bdc7; stroke-opacity: 0.45; stroke-width: 0.55; stroke-linecap: square"/>
     </g>
     <g id="line2d_108">
      <g>
       <use xlink:href="#m5c27b3ea63" x="382.424702" y="113.162" style="stroke: #000000; stroke-width: 0.7"/>
      </g>
     </g>
     <g id="text_25">
      <!-- 5 -->
      <g transform="translate(380.200327 122.98825) scale(0.08 -0.08)">
       <use xlink:href="#ArialMT-35"/>
      </g>
     </g>
    </g>
    <g id="xtick_17">
     <g id="line2d_109">
      <path d="M 404.92777 113.162 
L 404.92777 29.03 
" clip-path="url(#p443276c5bc)" style="fill: none; stroke: #b8bdc7; stroke-opacity: 0.45; stroke-width: 0.55; stroke-linecap: square"/>
     </g>
     <g id="line2d_110">
      <g>
       <use xlink:href="#m5c27b3ea63" x="404.92777" y="113.162" style="stroke: #000000; stroke-width: 0.7"/>
      </g>
     </g>
     <g id="text_26">
      <!-- 10 -->
      <g transform="translate(400.47902 122.98825) scale(0.08 -0.08)">
       <use xlink:href="#ArialMT-31"/>
       <use xlink:href="#ArialMT-30" x="55.615234"/>
      </g>
     </g>
    </g>
    <g id="xtick_18">
     <g id="line2d_111">
      <path d="M 427.430837 113.162 
L 427.430837 29.03 
" clip-path="url(#p443276c5bc)" style="fill: none; stroke: #b8bdc7; stroke-opacity: 0.45; stroke-width: 0.55; stroke-linecap: square"/>
     </g>
     <g id="line2d_112">
      <g>
       <use xlink:href="#m5c27b3ea63" x="427.430837" y="113.162" style="stroke: #000000; stroke-width: 0.7"/>
      </g>
     </g>
     <g id="text_27">
      <!-- 20 -->
      <g transform="translate(422.982087 122.98825) scale(0.08 -0.08)">
       <use xlink:href="#ArialMT-32"/>
       <use xlink:href="#ArialMT-30" x="55.615234"/>
      </g>
     </g>
    </g>
    <g id="xtick_19">
     <g id="line2d_113">
      <path d="M 449.933905 113.162 
L 449.933905 29.03 
" clip-path="url(#p443276c5bc)" style="fill: none; stroke: #b8bdc7; stroke-opacity: 0.45; stroke-width: 0.55; stroke-linecap: square"/>
     </g>
     <g id="line2d_114">
      <g>
       <use xlink:href="#m5c27b3ea63" x="449.933905" y="113.162" style="stroke: #000000; stroke-width: 0.7"/>
      </g>
     </g>
     <g id="text_28">
      <!-- 40 -->
      <g transform="translate(445.485155 122.98825) scale(0.08 -0.08)">
       <use xlink:href="#ArialMT-34"/>
       <use xlink:href="#ArialMT-30" x="55.615234"/>
      </g>
     </g>
    </g>
    <g id="xtick_20">
     <g id="line2d_115">
      <path d="M 472.436972 113.162 
L 472.436972 29.03 
" clip-path="url(#p443276c5bc)" style="fill: none; stroke: #b8bdc7; stroke-opacity: 0.45; stroke-width: 0.55; stroke-linecap: square"/>
     </g>
     <g id="line2d_116">
      <g>
       <use xlink:href="#m5c27b3ea63" x="472.436972" y="113.162" style="stroke: #000000; stroke-width: 0.7"/>
      </g>
     </g>
     <g id="text_29">
      <!-- 80 -->
      <g transform="translate(467.988222 122.98825) scale(0.08 -0.08)">
       <use xlink:href="#ArialMT-38"/>
       <use xlink:href="#ArialMT-30" x="55.615234"/>
      </g>
     </g>
    </g>
    <g id="xtick_21">
     <g id="line2d_117">
      <path d="M 494.94004 113.162 
L 494.94004 29.03 
" clip-path="url(#p443276c5bc)" style="fill: none; stroke: #b8bdc7; stroke-opacity: 0.45; stroke-width: 0.55; stroke-linecap: square"/>
     </g>
     <g id="line2d_118">
      <g>
       <use xlink:href="#m5c27b3ea63" x="494.94004" y="113.162" style="stroke: #000000; stroke-width: 0.7"/>
      </g>
     </g>
     <g id="text_30">
      <!-- 160 -->
      <g transform="translate(488.266915 122.98825) scale(0.08 -0.08)">
       <use xlink:href="#ArialMT-31"/>
       <use xlink:href="#ArialMT-36" x="55.615234"/>
       <use xlink:href="#ArialMT-30" x="111.230469"/>
      </g>
     </g>
    </g>
    <g id="text_31">
     <!-- Horizon $N$ -->
     <g transform="translate(409.510837 131.8045) scale(0.08 -0.08)">
      <use xlink:href="#ArialMT-48" transform="translate(0 0.09375)"/>
      <use xlink:href="#ArialMT-6f" transform="translate(72.216797 0.09375)"/>
      <use xlink:href="#ArialMT-72" transform="translate(127.832031 0.09375)"/>
      <use xlink:href="#ArialMT-69" transform="translate(161.132812 0.09375)"/>
      <use xlink:href="#ArialMT-7a" transform="translate(183.349609 0.09375)"/>
      <use xlink:href="#ArialMT-6f" transform="translate(233.349609 0.09375)"/>
      <use xlink:href="#ArialMT-6e" transform="translate(288.964844 0.09375)"/>
      <use xlink:href="#ArialMT-20" transform="translate(344.580078 0.09375)"/>
      <use xlink:href="#DejaVuSans-Oblique-4e" transform="translate(372.363281 0.09375)"/>
     </g>
    </g>
   </g>
   <g id="matplotlib.axis_6">
    <g id="ytick_65">
     <g id="line2d_119">
      <path d="M 356.546175 106.909301 
L 498.3155 106.909301 
" clip-path="url(#p443276c5bc)" style="fill: none; stroke: #b8bdc7; stroke-opacity: 0.45; stroke-width: 0.55; stroke-linecap: square"/>
     </g>
     <g id="line2d_120">
      <g>
       <use xlink:href="#mf7d2882926" x="356.546175" y="106.909301" style="stroke: #000000; stroke-width: 0.7"/>
      </g>
     </g>
    </g>
    <g id="ytick_66">
     <g id="line2d_121">
      <path d="M 356.546175 82.05885 
L 498.3155 82.05885 
" clip-path="url(#p443276c5bc)" style="fill: none; stroke: #b8bdc7; stroke-opacity: 0.45; stroke-width: 0.55; stroke-linecap: square"/>
     </g>
     <g id="line2d_122">
      <g>
       <use xlink:href="#mf7d2882926" x="356.546175" y="82.05885" style="stroke: #000000; stroke-width: 0.7"/>
      </g>
     </g>
    </g>
    <g id="ytick_67">
     <g id="line2d_123">
      <path d="M 356.546175 57.208398 
L 498.3155 57.208398 
" clip-path="url(#p443276c5bc)" style="fill: none; stroke: #b8bdc7; stroke-opacity: 0.45; stroke-width: 0.55; stroke-linecap: square"/>
     </g>
     <g id="line2d_124">
      <g>
       <use xlink:href="#mf7d2882926" x="356.546175" y="57.208398" style="stroke: #000000; stroke-width: 0.7"/>
      </g>
     </g>
    </g>
    <g id="ytick_68">
     <g id="line2d_125">
      <path d="M 356.546175 32.357946 
L 498.3155 32.357946 
" clip-path="url(#p443276c5bc)" style="fill: none; stroke: #b8bdc7; stroke-opacity: 0.45; stroke-width: 0.55; stroke-linecap: square"/>
     </g>
     <g id="line2d_126">
      <g>
       <use xlink:href="#mf7d2882926" x="356.546175" y="32.357946" style="stroke: #000000; stroke-width: 0.7"/>
      </g>
     </g>
    </g>
    <g id="ytick_69">
     <g id="line2d_127">
      <g>
       <use xlink:href="#m552c8fb9e7" x="356.546175" y="112.422343" style="stroke: #000000; stroke-width: 0.55"/>
      </g>
     </g>
    </g>
    <g id="ytick_70">
     <g id="line2d_128">
      <g>
       <use xlink:href="#m552c8fb9e7" x="356.546175" y="110.758685" style="stroke: #000000; stroke-width: 0.55"/>
      </g>
     </g>
    </g>
    <g id="ytick_71">
     <g id="line2d_129">
      <g>
       <use xlink:href="#m552c8fb9e7" x="356.546175" y="109.317559" style="stroke: #000000; stroke-width: 0.55"/>
      </g>
     </g>
    </g>
    <g id="ytick_72">
     <g id="line2d_130">
      <g>
       <use xlink:href="#m552c8fb9e7" x="356.546175" y="108.046396" style="stroke: #000000; stroke-width: 0.55"/>
      </g>
     </g>
    </g>
    <g id="ytick_73">
     <g id="line2d_131">
      <g>
       <use xlink:href="#m552c8fb9e7" x="356.546175" y="99.42857" style="stroke: #000000; stroke-width: 0.55"/>
      </g>
     </g>
    </g>
    <g id="ytick_74">
     <g id="line2d_132">
      <g>
       <use xlink:href="#m552c8fb9e7" x="356.546175" y="95.052623" style="stroke: #000000; stroke-width: 0.55"/>
      </g>
     </g>
    </g>
    <g id="ytick_75">
     <g id="line2d_133">
      <g>
       <use xlink:href="#m552c8fb9e7" x="356.546175" y="91.947839" style="stroke: #000000; stroke-width: 0.55"/>
      </g>
     </g>
    </g>
    <g id="ytick_76">
     <g id="line2d_134">
      <g>
       <use xlink:href="#m552c8fb9e7" x="356.546175" y="89.539581" style="stroke: #000000; stroke-width: 0.55"/>
      </g>
     </g>
    </g>
    <g id="ytick_77">
     <g id="line2d_135">
      <g>
       <use xlink:href="#m552c8fb9e7" x="356.546175" y="87.571891" style="stroke: #000000; stroke-width: 0.55"/>
      </g>
     </g>
    </g>
    <g id="ytick_78">
     <g id="line2d_136">
      <g>
       <use xlink:href="#m552c8fb9e7" x="356.546175" y="85.908233" style="stroke: #000000; stroke-width: 0.55"/>
      </g>
     </g>
    </g>
    <g id="ytick_79">
     <g id="line2d_137">
      <g>
       <use xlink:href="#m552c8fb9e7" x="356.546175" y="84.467107" style="stroke: #000000; stroke-width: 0.55"/>
      </g>
     </g>
    </g>
    <g id="ytick_80">
     <g id="line2d_138">
      <g>
       <use xlink:href="#m552c8fb9e7" x="356.546175" y="83.195944" style="stroke: #000000; stroke-width: 0.55"/>
      </g>
     </g>
    </g>
    <g id="ytick_81">
     <g id="line2d_139">
      <g>
       <use xlink:href="#m552c8fb9e7" x="356.546175" y="74.578118" style="stroke: #000000; stroke-width: 0.55"/>
      </g>
     </g>
    </g>
    <g id="ytick_82">
     <g id="line2d_140">
      <g>
       <use xlink:href="#m552c8fb9e7" x="356.546175" y="70.202171" style="stroke: #000000; stroke-width: 0.55"/>
      </g>
     </g>
    </g>
    <g id="ytick_83">
     <g id="line2d_141">
      <g>
       <use xlink:href="#m552c8fb9e7" x="356.546175" y="67.097387" style="stroke: #000000; stroke-width: 0.55"/>
      </g>
     </g>
    </g>
    <g id="ytick_84">
     <g id="line2d_142">
      <g>
       <use xlink:href="#m552c8fb9e7" x="356.546175" y="64.689129" style="stroke: #000000; stroke-width: 0.55"/>
      </g>
     </g>
    </g>
    <g id="ytick_85">
     <g id="line2d_143">
      <g>
       <use xlink:href="#m552c8fb9e7" x="356.546175" y="62.721439" style="stroke: #000000; stroke-width: 0.55"/>
      </g>
     </g>
    </g>
    <g id="ytick_86">
     <g id="line2d_144">
      <g>
       <use xlink:href="#m552c8fb9e7" x="356.546175" y="61.057781" style="stroke: #000000; stroke-width: 0.55"/>
      </g>
     </g>
    </g>
    <g id="ytick_87">
     <g id="line2d_145">
      <g>
       <use xlink:href="#m552c8fb9e7" x="356.546175" y="59.616655" style="stroke: #000000; stroke-width: 0.55"/>
      </g>
     </g>
    </g>
    <g id="ytick_88">
     <g id="line2d_146">
      <g>
       <use xlink:href="#m552c8fb9e7" x="356.546175" y="58.345492" style="stroke: #000000; stroke-width: 0.55"/>
      </g>
     </g>
    </g>
    <g id="ytick_89">
     <g id="line2d_147">
      <g>
       <use xlink:href="#m552c8fb9e7" x="356.546175" y="49.727666" style="stroke: #000000; stroke-width: 0.55"/>
      </g>
     </g>
    </g>
    <g id="ytick_90">
     <g id="line2d_148">
      <g>
       <use xlink:href="#m552c8fb9e7" x="356.546175" y="45.351719" style="stroke: #000000; stroke-width: 0.55"/>
      </g>
     </g>
    </g>
    <g id="ytick_91">
     <g id="line2d_149">
      <g>
       <use xlink:href="#m552c8fb9e7" x="356.546175" y="42.246935" style="stroke: #000000; stroke-width: 0.55"/>
      </g>
     </g>
    </g>
    <g id="ytick_92">
     <g id="line2d_150">
      <g>
       <use xlink:href="#m552c8fb9e7" x="356.546175" y="39.838677" style="stroke: #000000; stroke-width: 0.55"/>
      </g>
     </g>
    </g>
    <g id="ytick_93">
     <g id="line2d_151">
      <g>
       <use xlink:href="#m552c8fb9e7" x="356.546175" y="37.870988" style="stroke: #000000; stroke-width: 0.55"/>
      </g>
     </g>
    </g>
    <g id="ytick_94">
     <g id="line2d_152">
      <g>
       <use xlink:href="#m552c8fb9e7" x="356.546175" y="36.20733" style="stroke: #000000; stroke-width: 0.55"/>
      </g>
     </g>
    </g>
    <g id="ytick_95">
     <g id="line2d_153">
      <g>
       <use xlink:href="#m552c8fb9e7" x="356.546175" y="34.766204" style="stroke: #000000; stroke-width: 0.55"/>
      </g>
     </g>
    </g>
    <g id="ytick_96">
     <g id="line2d_154">
      <g>
       <use xlink:href="#m552c8fb9e7" x="356.546175" y="33.49504" style="stroke: #000000; stroke-width: 0.55"/>
      </g>
     </g>
    </g>
   </g>
   <g id="PolyCollection_5">
    <defs>
     <path id="meddfbf06ec" d="M 359.921635 -77.993797 
L 359.921635 -75.18842 
L 382.424702 -81.608789 
L 404.92777 -97.471682 
L 427.430837 -109.304097 
L 449.933905 -104.980896 
L 472.436972 -106.556842 
L 494.94004 -115.017703 
L 494.94004 -122.489894 
L 494.94004 -122.489894 
L 472.436972 -108.604916 
L 449.933905 -106.08433 
L 427.430837 -109.571052 
L 404.92777 -97.742784 
L 382.424702 -83.042393 
L 359.921635 -77.993797 
z
"/>
    </defs>
    <g clip-path="url(#p443276c5bc)">
     <use xlink:href="#meddfbf06ec" x="0" y="155.344076" style="fill: #ccccff; fill-opacity: 0.55"/>
    </g>
   </g>
   <g id="PolyCollection_6">
    <defs>
     <path id="m008c24b4d4" d="M 359.921635 -87.150977 
L 359.921635 -86.131463 
L 382.424702 -86.760024 
L 404.92777 -87.399721 
L 427.430837 -87.155551 
L 449.933905 -88.468449 
L 472.436972 -88.819196 
L 494.94004 -94.100378 
L 494.94004 -97.280359 
L 494.94004 -97.280359 
L 472.436972 -91.170829 
L 449.933905 -90.905925 
L 427.430837 -91.156084 
L 404.92777 -88.3678 
L 382.424702 -87.807395 
L 359.921635 -87.150977 
z
"/>
    </defs>
    <g clip-path="url(#p443276c5bc)">
     <use xlink:href="#m008c24b4d4" x="0" y="155.344076" style="fill: #e6ccff; fill-opacity: 0.55"/>
    </g>
   </g>
   <g id="patch_13">
    <path d="M 356.546175 113.162 
L 356.546175 29.03 
" style="fill: none; stroke: #25282d; stroke-width: 0.72; stroke-linejoin: miter; stroke-linecap: square"/>
   </g>
   <g id="patch_14">
    <path d="M 498.3155 113.162 
L 498.3155 29.03 
" style="fill: none; stroke: #25282d; stroke-width: 0.72; stroke-linejoin: miter; stroke-linecap: square"/>
   </g>
   <g id="patch_15">
    <path d="M 356.546175 113.162 
L 498.3155 113.162 
" style="fill: none; stroke: #25282d; stroke-width: 0.72; stroke-linejoin: miter; stroke-linecap: square"/>
   </g>
   <g id="patch_16">
    <path d="M 356.546175 29.03 
L 498.3155 29.03 
" style="fill: none; stroke: #25282d; stroke-width: 0.72; stroke-linejoin: miter; stroke-linecap: square"/>
   </g>
   <g id="text_32">
    <!-- (c) Total time -->
    <g transform="translate(400.921837 146.047795) scale(0.098 -0.098)">
     <defs>
      <path id="TimesNewRomanPSMT-54" d="M 3703 4238 
L 3750 3244 
L 3631 3244 
Q 3597 3506 3538 3619 
Q 3441 3800 3280 3886 
Q 3119 3972 2856 3972 
L 2259 3972 
L 2259 734 
Q 2259 344 2344 247 
Q 2463 116 2709 116 
L 2856 116 
L 2856 0 
L 1059 0 
L 1059 116 
L 1209 116 
Q 1478 116 1591 278 
Q 1659 378 1659 734 
L 1659 3972 
L 1150 3972 
Q 853 3972 728 3928 
Q 566 3869 450 3700 
Q 334 3531 313 3244 
L 194 3244 
L 244 4238 
L 3703 4238 
z
" transform="scale(0.015625)"/>
      <path id="TimesNewRomanPSMT-74" d="M 1031 3803 
L 1031 2863 
L 1700 2863 
L 1700 2644 
L 1031 2644 
L 1031 788 
Q 1031 509 1111 412 
Q 1191 316 1316 316 
Q 1419 316 1516 380 
Q 1613 444 1666 569 
L 1788 569 
Q 1678 263 1478 108 
Q 1278 -47 1066 -47 
Q 922 -47 784 33 
Q 647 113 581 261 
Q 516 409 516 719 
L 516 2644 
L 63 2644 
L 63 2747 
Q 234 2816 414 2980 
Q 594 3144 734 3369 
Q 806 3488 934 3803 
L 1031 3803 
z
" transform="scale(0.015625)"/>
      <path id="TimesNewRomanPSMT-6c" d="M 1184 4444 
L 1184 647 
Q 1184 378 1223 290 
Q 1263 203 1344 158 
Q 1425 113 1647 113 
L 1647 0 
L 244 0 
L 244 113 
Q 441 113 512 153 
Q 584 194 625 287 
Q 666 381 666 647 
L 666 3247 
Q 666 3731 644 3842 
Q 622 3953 573 3993 
Q 525 4034 450 4034 
Q 369 4034 244 3984 
L 191 4094 
L 1044 4444 
L 1184 4444 
z
" transform="scale(0.015625)"/>
      <path id="TimesNewRomanPSMT-69" d="M 928 4444 
Q 1059 4444 1151 4351 
Q 1244 4259 1244 4128 
Q 1244 3997 1151 3903 
Q 1059 3809 928 3809 
Q 797 3809 703 3903 
Q 609 3997 609 4128 
Q 609 4259 701 4351 
Q 794 4444 928 4444 
z
M 1188 2947 
L 1188 647 
Q 1188 378 1227 289 
Q 1266 200 1342 156 
Q 1419 113 1622 113 
L 1622 0 
L 231 0 
L 231 113 
Q 441 113 512 153 
Q 584 194 626 287 
Q 669 381 669 647 
L 669 1750 
Q 669 2216 641 2353 
Q 619 2453 572 2492 
Q 525 2531 444 2531 
Q 356 2531 231 2484 
L 188 2597 
L 1050 2947 
L 1188 2947 
z
" transform="scale(0.015625)"/>
      <path id="TimesNewRomanPSMT-6d" d="M 1050 2338 
Q 1363 2650 1419 2697 
Q 1559 2816 1721 2881 
Q 1884 2947 2044 2947 
Q 2313 2947 2506 2790 
Q 2700 2634 2766 2338 
Q 3088 2713 3309 2830 
Q 3531 2947 3766 2947 
Q 3994 2947 4170 2830 
Q 4347 2713 4450 2447 
Q 4519 2266 4519 1878 
L 4519 647 
Q 4519 378 4559 278 
Q 4591 209 4675 161 
Q 4759 113 4950 113 
L 4950 0 
L 3538 0 
L 3538 113 
L 3597 113 
Q 3781 113 3884 184 
Q 3956 234 3988 344 
Q 4000 397 4000 647 
L 4000 1878 
Q 4000 2228 3916 2372 
Q 3794 2572 3525 2572 
Q 3359 2572 3192 2489 
Q 3025 2406 2788 2181 
L 2781 2147 
L 2788 2013 
L 2788 647 
Q 2788 353 2820 281 
Q 2853 209 2943 161 
Q 3034 113 3253 113 
L 3253 0 
L 1806 0 
L 1806 113 
Q 2044 113 2133 169 
Q 2222 225 2256 338 
Q 2272 391 2272 647 
L 2272 1878 
Q 2272 2228 2169 2381 
Q 2031 2581 1784 2581 
Q 1616 2581 1450 2491 
Q 1191 2353 1050 2181 
L 1050 647 
Q 1050 366 1089 281 
Q 1128 197 1204 155 
Q 1281 113 1516 113 
L 1516 0 
L 100 0 
L 100 113 
Q 297 113 375 155 
Q 453 197 493 289 
Q 534 381 534 647 
L 534 1741 
Q 534 2213 506 2350 
Q 484 2453 437 2492 
Q 391 2531 309 2531 
Q 222 2531 100 2484 
L 53 2597 
L 916 2947 
L 1050 2947 
L 1050 2338 
z
" transform="scale(0.015625)"/>
      <path id="TimesNewRomanPSMT-65" d="M 681 1784 
Q 678 1147 991 784 
Q 1303 422 1725 422 
Q 2006 422 2214 576 
Q 2422 731 2563 1106 
L 2659 1044 
Q 2594 616 2278 264 
Q 1963 -88 1488 -88 
Q 972 -88 605 314 
Q 238 716 238 1394 
Q 238 2128 614 2539 
Q 991 2950 1559 2950 
Q 2041 2950 2350 2633 
Q 2659 2316 2659 1784 
L 681 1784 
z
M 681 1966 
L 2006 1966 
Q 1991 2241 1941 2353 
Q 1863 2528 1708 2628 
Q 1553 2728 1384 2728 
Q 1125 2728 920 2526 
Q 716 2325 681 1966 
z
" transform="scale(0.015625)"/>
     </defs>
     <use xlink:href="#TimesNewRomanPSMT-28"/>
     <use xlink:href="#TimesNewRomanPSMT-63" x="33.300781"/>
     <use xlink:href="#TimesNewRomanPSMT-29" x="77.685547"/>
     <use xlink:href="#TimesNewRomanPSMT-20" x="110.986328"/>
     <use xlink:href="#TimesNewRomanPSMT-54" x="134.236328"/>
     <use xlink:href="#TimesNewRomanPSMT-6f" x="188.320312"/>
     <use xlink:href="#TimesNewRomanPSMT-74" x="238.320312"/>
     <use xlink:href="#TimesNewRomanPSMT-61" x="266.103516"/>
     <use xlink:href="#TimesNewRomanPSMT-6c" x="310.488281"/>
     <use xlink:href="#TimesNewRomanPSMT-20" x="338.271484"/>
     <use xlink:href="#TimesNewRomanPSMT-74" x="363.271484"/>
     <use xlink:href="#TimesNewRomanPSMT-69" x="391.054688"/>
     <use xlink:href="#TimesNewRomanPSMT-6d" x="418.837891"/>
     <use xlink:href="#TimesNewRomanPSMT-65" x="496.621094"/>
    </g>
   </g>
   <g id="line2d_155">
    <path d="M 359.921635 79.635921 
L 382.424702 73.299761 
L 404.92777 57.779599 
L 427.430837 45.866024 
L 449.933905 49.85228 
L 472.436972 48.368747 
L 494.94004 35.328149 
" clip-path="url(#p443276c5bc)" style="fill: none; stroke: #0000ff; stroke-width: 1.25; stroke-linecap: square"/>
    <g clip-path="url(#p443276c5bc)">
     <use xlink:href="#m680a4ca0b4" x="359.921635" y="79.635921" style="fill: #0000ff; stroke: #0000ff"/>
     <use xlink:href="#m680a4ca0b4" x="382.424702" y="73.299761" style="fill: #0000ff; stroke: #0000ff"/>
     <use xlink:href="#m680a4ca0b4" x="404.92777" y="57.779599" style="fill: #0000ff; stroke: #0000ff"/>
     <use xlink:href="#m680a4ca0b4" x="427.430837" y="45.866024" style="fill: #0000ff; stroke: #0000ff"/>
     <use xlink:href="#m680a4ca0b4" x="449.933905" y="49.85228" style="fill: #0000ff; stroke: #0000ff"/>
     <use xlink:href="#m680a4ca0b4" x="472.436972" y="48.368747" style="fill: #0000ff; stroke: #0000ff"/>
     <use xlink:href="#m680a4ca0b4" x="494.94004" y="35.328149" style="fill: #0000ff; stroke: #0000ff"/>
    </g>
   </g>
   <g id="line2d_156">
    <path d="M 359.921635 68.8893 
L 382.424702 68.272595 
L 404.92777 67.431688 
L 427.430837 66.817646 
L 449.933905 66.664317 
L 472.436972 65.334553 
L 494.94004 58.641439 
" clip-path="url(#p443276c5bc)" style="fill: none; stroke-dasharray: 4.625,2; stroke-dashoffset: 0; stroke: #8000ff; stroke-width: 1.25"/>
    <g clip-path="url(#p443276c5bc)">
     <use xlink:href="#m5d6d832f3a" x="359.921635" y="68.8893" style="fill: #8000ff; stroke: #8000ff; stroke-linejoin: miter"/>
     <use xlink:href="#m5d6d832f3a" x="382.424702" y="68.272595" style="fill: #8000ff; stroke: #8000ff; stroke-linejoin: miter"/>
     <use xlink:href="#m5d6d832f3a" x="404.92777" y="67.431688" style="fill: #8000ff; stroke: #8000ff; stroke-linejoin: miter"/>
     <use xlink:href="#m5d6d832f3a" x="427.430837" y="66.817646" style="fill: #8000ff; stroke: #8000ff; stroke-linejoin: miter"/>
     <use xlink:href="#m5d6d832f3a" x="449.933905" y="66.664317" style="fill: #8000ff; stroke: #8000ff; stroke-linejoin: miter"/>
     <use xlink:href="#m5d6d832f3a" x="472.436972" y="65.334553" style="fill: #8000ff; stroke: #8000ff; stroke-linejoin: miter"/>
     <use xlink:href="#m5d6d832f3a" x="494.94004" y="58.641439" style="fill: #8000ff; stroke: #8000ff; stroke-linejoin: miter"/>
    </g>
   </g>
  </g>
  <g id="legend_1">
   <g id="patch_17">
    <path d="M 181.965625 21.23625 
L 318.729375 21.23625 
Q 320.329375 21.23625 320.329375 19.63625 
L 320.329375 8.8 
Q 320.329375 7.2 318.729375 7.2 
L 181.965625 7.2 
Q 180.365625 7.2 180.365625 8.8 
L 180.365625 19.63625 
Q 180.365625 21.23625 181.965625 21.23625 
z
" style="fill: #f2f3f5; opacity: 0.96; stroke: #c9cdd6; stroke-linejoin: miter"/>
   </g>
   <g id="line2d_157">
    <path d="M 183.725625 13.48625 
L 190.925625 13.48625 
L 198.125625 13.48625 
" style="fill: none; stroke: #0000ff; stroke-width: 1.25; stroke-linecap: square"/>
    <g>
     <use xlink:href="#m680a4ca0b4" x="190.925625" y="13.48625" style="fill: #0000ff; stroke: #0000ff"/>
    </g>
   </g>
   <g id="text_33">
    <!-- lapanda -->
    <g transform="translate(202.125625 16.28625) scale(0.08 -0.08)">
     <defs>
      <path id="ArialMT-6c" d="M 409 0 
L 409 4581 
L 972 4581 
L 972 0 
L 409 0 
z
" transform="scale(0.015625)"/>
      <path id="ArialMT-61" d="M 2588 409 
Q 2275 144 1986 34 
Q 1697 -75 1366 -75 
Q 819 -75 525 192 
Q 231 459 231 875 
Q 231 1119 342 1320 
Q 453 1522 633 1644 
Q 813 1766 1038 1828 
Q 1203 1872 1538 1913 
Q 2219 1994 2541 2106 
Q 2544 2222 2544 2253 
Q 2544 2597 2384 2738 
Q 2169 2928 1744 2928 
Q 1347 2928 1158 2789 
Q 969 2650 878 2297 
L 328 2372 
Q 403 2725 575 2942 
Q 747 3159 1072 3276 
Q 1397 3394 1825 3394 
Q 2250 3394 2515 3294 
Q 2781 3194 2906 3042 
Q 3031 2891 3081 2659 
Q 3109 2516 3109 2141 
L 3109 1391 
Q 3109 606 3145 398 
Q 3181 191 3288 0 
L 2700 0 
Q 2613 175 2588 409 
z
M 2541 1666 
Q 2234 1541 1622 1453 
Q 1275 1403 1131 1340 
Q 988 1278 909 1158 
Q 831 1038 831 891 
Q 831 666 1001 516 
Q 1172 366 1500 366 
Q 1825 366 2078 508 
Q 2331 650 2450 897 
Q 2541 1088 2541 1459 
L 2541 1666 
z
" transform="scale(0.015625)"/>
      <path id="ArialMT-70" d="M 422 -1272 
L 422 3319 
L 934 3319 
L 934 2888 
Q 1116 3141 1344 3267 
Q 1572 3394 1897 3394 
Q 2322 3394 2647 3175 
Q 2972 2956 3137 2557 
Q 3303 2159 3303 1684 
Q 3303 1175 3120 767 
Q 2938 359 2589 142 
Q 2241 -75 1856 -75 
Q 1575 -75 1351 44 
Q 1128 163 984 344 
L 984 -1272 
L 422 -1272 
z
M 931 1641 
Q 931 1000 1190 694 
Q 1450 388 1819 388 
Q 2194 388 2461 705 
Q 2728 1022 2728 1688 
Q 2728 2322 2467 2637 
Q 2206 2953 1844 2953 
Q 1484 2953 1207 2617 
Q 931 2281 931 1641 
z
" transform="scale(0.015625)"/>
      <path id="ArialMT-64" d="M 2575 0 
L 2575 419 
Q 2259 -75 1647 -75 
Q 1250 -75 917 144 
Q 584 363 401 755 
Q 219 1147 219 1656 
Q 219 2153 384 2558 
Q 550 2963 881 3178 
Q 1213 3394 1622 3394 
Q 1922 3394 2156 3267 
Q 2391 3141 2538 2938 
L 2538 4581 
L 3097 4581 
L 3097 0 
L 2575 0 
z
M 797 1656 
Q 797 1019 1065 703 
Q 1334 388 1700 388 
Q 2069 388 2326 689 
Q 2584 991 2584 1609 
Q 2584 2291 2321 2609 
Q 2059 2928 1675 2928 
Q 1300 2928 1048 2622 
Q 797 2316 797 1656 
z
" transform="scale(0.015625)"/>
     </defs>
     <use xlink:href="#ArialMT-6c"/>
     <use xlink:href="#ArialMT-61" x="22.216797"/>
     <use xlink:href="#ArialMT-70" x="77.832031"/>
     <use xlink:href="#ArialMT-61" x="133.447266"/>
     <use xlink:href="#ArialMT-6e" x="189.0625"/>
     <use xlink:href="#ArialMT-64" x="244.677734"/>
     <use xlink:href="#ArialMT-61" x="300.292969"/>
    </g>
   </g>
   <g id="line2d_158">
    <path d="M 240.195625 13.48625 
L 247.395625 13.48625 
L 254.595625 13.48625 
" style="fill: none; stroke-dasharray: 4.625,2; stroke-dashoffset: 0; stroke: #8000ff; stroke-width: 1.25"/>
    <g>
     <use xlink:href="#m5d6d832f3a" x="247.395625" y="13.48625" style="fill: #8000ff; stroke: #8000ff; stroke-linejoin: miter"/>
    </g>
   </g>
   <g id="text_34">
    <!-- TurboMPC-GPU -->
    <g transform="translate(258.595625 16.28625) scale(0.08 -0.08)">
     <defs>
      <path id="ArialMT-75" d="M 2597 0 
L 2597 488 
Q 2209 -75 1544 -75 
Q 1250 -75 995 37 
Q 741 150 617 320 
Q 494 491 444 738 
Q 409 903 409 1263 
L 409 3319 
L 972 3319 
L 972 1478 
Q 972 1038 1006 884 
Q 1059 663 1231 536 
Q 1403 409 1656 409 
Q 1909 409 2131 539 
Q 2353 669 2445 892 
Q 2538 1116 2538 1541 
L 2538 3319 
L 3100 3319 
L 3100 0 
L 2597 0 
z
" transform="scale(0.015625)"/>
      <path id="ArialMT-62" d="M 941 0 
L 419 0 
L 419 4581 
L 981 4581 
L 981 2947 
Q 1338 3394 1891 3394 
Q 2197 3394 2470 3270 
Q 2744 3147 2920 2923 
Q 3097 2700 3197 2384 
Q 3297 2069 3297 1709 
Q 3297 856 2875 390 
Q 2453 -75 1863 -75 
Q 1275 -75 941 416 
L 941 0 
z
M 934 1684 
Q 934 1088 1097 822 
Q 1363 388 1816 388 
Q 2184 388 2453 708 
Q 2722 1028 2722 1663 
Q 2722 2313 2464 2622 
Q 2206 2931 1841 2931 
Q 1472 2931 1203 2611 
Q 934 2291 934 1684 
z
" transform="scale(0.015625)"/>
      <path id="ArialMT-4d" d="M 475 0 
L 475 4581 
L 1388 4581 
L 2472 1338 
Q 2622 884 2691 659 
Q 2769 909 2934 1394 
L 4031 4581 
L 4847 4581 
L 4847 0 
L 4263 0 
L 4263 3834 
L 2931 0 
L 2384 0 
L 1059 3900 
L 1059 0 
L 475 0 
z
" transform="scale(0.015625)"/>
      <path id="ArialMT-50" d="M 494 0 
L 494 4581 
L 2222 4581 
Q 2678 4581 2919 4538 
Q 3256 4481 3484 4323 
Q 3713 4166 3852 3881 
Q 3991 3597 3991 3256 
Q 3991 2672 3619 2267 
Q 3247 1863 2275 1863 
L 1100 1863 
L 1100 0 
L 494 0 
z
M 1100 2403 
L 2284 2403 
Q 2872 2403 3119 2622 
Q 3366 2841 3366 3238 
Q 3366 3525 3220 3729 
Q 3075 3934 2838 4000 
Q 2684 4041 2272 4041 
L 1100 4041 
L 1100 2403 
z
" transform="scale(0.015625)"/>
      <path id="ArialMT-43" d="M 3763 1606 
L 4369 1453 
Q 4178 706 3683 314 
Q 3188 -78 2472 -78 
Q 1731 -78 1267 223 
Q 803 525 561 1097 
Q 319 1669 319 2325 
Q 319 3041 592 3573 
Q 866 4106 1370 4382 
Q 1875 4659 2481 4659 
Q 3169 4659 3637 4309 
Q 4106 3959 4291 3325 
L 3694 3184 
Q 3534 3684 3231 3912 
Q 2928 4141 2469 4141 
Q 1941 4141 1586 3887 
Q 1231 3634 1087 3207 
Q 944 2781 944 2328 
Q 944 1744 1114 1308 
Q 1284 872 1643 656 
Q 2003 441 2422 441 
Q 2931 441 3284 734 
Q 3638 1028 3763 1606 
z
" transform="scale(0.015625)"/>
      <path id="ArialMT-2d" d="M 203 1375 
L 203 1941 
L 1931 1941 
L 1931 1375 
L 203 1375 
z
" transform="scale(0.015625)"/>
      <path id="ArialMT-47" d="M 2638 1797 
L 2638 2334 
L 4578 2338 
L 4578 638 
Q 4131 281 3656 101 
Q 3181 -78 2681 -78 
Q 2006 -78 1454 211 
Q 903 500 622 1047 
Q 341 1594 341 2269 
Q 341 2938 620 3517 
Q 900 4097 1425 4378 
Q 1950 4659 2634 4659 
Q 3131 4659 3532 4498 
Q 3934 4338 4162 4050 
Q 4391 3763 4509 3300 
L 3963 3150 
Q 3859 3500 3706 3700 
Q 3553 3900 3268 4020 
Q 2984 4141 2638 4141 
Q 2222 4141 1919 4014 
Q 1616 3888 1430 3681 
Q 1244 3475 1141 3228 
Q 966 2803 966 2306 
Q 966 1694 1177 1281 
Q 1388 869 1791 669 
Q 2194 469 2647 469 
Q 3041 469 3416 620 
Q 3791 772 3984 944 
L 3984 1797 
L 2638 1797 
z
" transform="scale(0.015625)"/>
      <path id="ArialMT-55" d="M 3500 4581 
L 4106 4581 
L 4106 1934 
Q 4106 1244 3950 837 
Q 3794 431 3386 176 
Q 2978 -78 2316 -78 
Q 1672 -78 1262 144 
Q 853 366 678 786 
Q 503 1206 503 1934 
L 503 4581 
L 1109 4581 
L 1109 1938 
Q 1109 1341 1220 1058 
Q 1331 775 1601 622 
Q 1872 469 2263 469 
Q 2931 469 3215 772 
Q 3500 1075 3500 1938 
L 3500 4581 
z
" transform="scale(0.015625)"/>
     </defs>
     <use xlink:href="#ArialMT-54"/>
     <use xlink:href="#ArialMT-75" x="57.333984"/>
     <use xlink:href="#ArialMT-72" x="112.949219"/>
     <use xlink:href="#ArialMT-62" x="146.25"/>
     <use xlink:href="#ArialMT-6f" x="201.865234"/>
     <use xlink:href="#ArialMT-4d" x="257.480469"/>
     <use xlink:href="#ArialMT-50" x="340.78125"/>
     <use xlink:href="#ArialMT-43" x="407.480469"/>
     <use xlink:href="#ArialMT-2d" x="479.697266"/>
     <use xlink:href="#ArialMT-47" x="512.998047"/>
     <use xlink:href="#ArialMT-50" x="590.78125"/>
     <use xlink:href="#ArialMT-55" x="657.480469"/>
    </g>
   </g>
  </g>
 </g>
 <defs>
  <clipPath id="p04d05f8813">
   <rect x="36.1475" y="29.03" width="141.769325" height="84.132"/>
  </clipPath>
  <clipPath id="pc6320ddaee">
   <rect x="196.346837" y="29.03" width="141.769325" height="84.132"/>
  </clipPath>
  <clipPath id="p443276c5bc">
   <rect x="356.546175" y="29.03" width="141.769325" height="84.132"/>
  </clipPath>
 </defs>
</svg>
